<svg xmlns="http://www.w3.org/2000/svg" xmlns:xlink="http://www.w3.org/1999/xlink" width="500" zoomAndPan="magnify" viewBox="0 0 375 374.999991" height="500" preserveAspectRatio="xMidYMid meet" version="1.0"><defs><clipPath id="b4e493c8f0"><path d="M 7 12 L 366 12 L 366 368 L 7 368 Z M 7 12 " clip-rule="nonzero"/></clipPath><clipPath id="438f264926"><path d="M -18.003906 340.777344 L 351.160156 -4.546875 L 416.226562 65.015625 L 47.066406 410.339844 Z M -18.003906 340.777344 " clip-rule="nonzero"/></clipPath><clipPath id="d45eeff777"><path d="M -18.003906 340.777344 L 351.160156 -4.546875 L 416.226562 65.015625 L 47.066406 410.339844 Z M -18.003906 340.777344 " clip-rule="nonzero"/></clipPath></defs><g clip-path="url(#b4e493c8f0)"><g clip-path="url(#438f264926)"><g clip-path="url(#d45eeff777)"><path fill="#5f764f" d="M 136.128906 221.085938 C 135.789062 220.511719 135.570312 219.851562 135.378906 219.207031 C 135.238281 218.730469 135.359375 218.296875 135.960938 218.222656 C 136.332031 218.328125 136.277344 218.664062 136.367188 218.914062 C 137.214844 221.253906 138.324219 221.921875 140.757812 221.542969 C 140.925781 221.515625 141.09375 221.480469 141.265625 221.464844 C 141.546875 221.433594 141.839844 221.40625 141.941406 221.777344 C 142.027344 222.101562 141.867188 222.296875 141.597656 222.464844 C 140.027344 223.425781 137.085938 222.71875 136.128906 221.085938 Z M 204.863281 155.277344 C 205.046875 155.113281 205.09375 154.894531 205.058594 154.671875 C 205 154.28125 204.699219 154.285156 204.414062 154.339844 C 204.027344 154.417969 203.652344 154.546875 203.269531 154.625 C 201.71875 154.953125 200.347656 154.832031 199.589844 153.152344 C 199.480469 152.90625 199.238281 152.707031 198.867188 152.835938 C 198.585938 153.074219 198.632812 153.382812 198.730469 153.730469 C 199.355469 155.953125 203.066406 156.890625 204.863281 155.277344 Z M 217.15625 173.382812 C 216 173.121094 214.972656 173.925781 213.832031 173.679688 C 212.601562 173.417969 212.132812 172.234375 211.046875 171.539062 C 210.859375 172.847656 211.988281 174.359375 213.273438 174.75 C 214.84375 175.226562 216.488281 174.675781 217.15625 173.382812 Z M 167.800781 188.191406 C 165.09375 188.808594 162.972656 188.097656 161.378906 185.898438 C 161.222656 187.441406 162.503906 188.832031 164.125 189.285156 C 165.820312 189.757812 166.972656 189.492188 167.800781 188.191406 Z M 300.613281 137.71875 C 300.875 137.570312 301.097656 137.421875 301.039062 137.082031 C 300.960938 136.617188 300.597656 136.585938 300.273438 136.691406 C 298.683594 137.203125 297.191406 137.347656 295.996094 135.839844 C 295.8125 135.609375 295.480469 135.644531 295.253906 135.898438 C 295.078125 136.101562 295.144531 136.308594 295.269531 136.511719 C 295.417969 136.746094 295.5625 136.984375 295.609375 137.0625 C 296.941406 138.402344 299.035156 138.621094 300.613281 137.71875 Z M 179.902344 216.449219 C 180.265625 216.207031 180.582031 215.984375 180.328125 215.527344 C 180.105469 215.121094 179.699219 215.277344 179.4375 215.4375 C 178.085938 216.285156 176.882812 215.941406 175.707031 215.074219 C 175.59375 214.992188 175.402344 215.015625 175.210938 214.984375 C 174.753906 215.769531 175.273438 216.164062 175.792969 216.480469 C 177.15625 217.320312 178.527344 217.359375 179.902344 216.449219 Z M 333.847656 94.894531 C 334.128906 94.78125 334.386719 94.640625 334.316406 94.300781 C 334.253906 93.988281 333.996094 93.816406 333.6875 93.839844 C 332.582031 93.921875 331.550781 93.773438 330.679688 92.996094 C 330.496094 92.835938 330.25 92.941406 330.042969 93.089844 C 329.8125 93.367188 329.992188 93.585938 330.160156 93.820312 C 330.886719 94.828125 332.699219 95.351562 333.847656 94.894531 Z M 293.871094 107.007812 C 294.214844 106.964844 294.566406 106.792969 294.542969 106.386719 C 294.523438 105.984375 294.175781 105.863281 293.816406 105.855469 C 292.847656 105.839844 291.898438 105.785156 291.113281 105.105469 C 290.90625 104.925781 290.695312 105.066406 290.496094 105.167969 C 290.179688 105.511719 290.398438 105.78125 290.625 106.042969 C 291.5 107.054688 292.652344 107.15625 293.871094 107.007812 Z M 320.675781 95.046875 C 320.957031 95.019531 321.230469 94.847656 321.257812 94.539062 C 321.292969 94.125 320.984375 93.929688 320.628906 93.910156 C 319.851562 93.871094 319.058594 93.949219 318.421875 93.332031 C 318.195312 93.109375 317.890625 93.164062 317.683594 93.40625 C 317.371094 93.769531 317.703125 94.007812 317.808594 94.160156 C 318.640625 95.152344 319.65625 95.132812 320.675781 95.046875 Z M 326.507812 121.5625 C 326.777344 121.425781 327.019531 121.238281 326.941406 120.925781 C 326.871094 120.640625 326.582031 120.445312 326.292969 120.507812 C 325.527344 120.671875 324.867188 120.421875 324.203125 120.089844 C 323.9375 119.953125 323.628906 120 323.472656 120.289062 C 323.320312 120.582031 323.523438 120.8125 323.714844 121.019531 C 324.371094 121.742188 325.664062 121.992188 326.507812 121.5625 Z M 141.628906 220.320312 C 141.898438 220.277344 142.234375 220.238281 142.226562 219.871094 C 142.214844 219.457031 141.910156 219.289062 141.53125 219.316406 C 140.648438 219.382812 139.769531 219.480469 138.886719 219.566406 C 138.855469 219.714844 138.820312 219.863281 138.789062 220.007812 C 139.59375 220.863281 140.632812 220.484375 141.628906 220.320312 Z M 167.710938 187.3125 C 167.847656 187.226562 167.984375 187.128906 167.960938 186.925781 C 167.933594 186.679688 167.777344 186.480469 167.574219 186.4375 C 166.824219 186.28125 166.0625 186.207031 165.101562 186.445312 C 165.753906 187.375 167.007812 187.738281 167.710938 187.3125 Z M 180.324219 214.6875 C 180.542969 214.671875 180.769531 214.585938 180.964844 214.480469 C 181.300781 214.304688 181.214844 214.035156 181.007812 213.695312 C 180.332031 213.40625 179.625 213.730469 178.933594 213.882812 C 178.65625 213.945312 178.507812 214.378906 178.71875 214.589844 C 179.1875 215.050781 179.78125 214.726562 180.324219 214.6875 Z M 217.988281 171.589844 C 217.441406 170.855469 216.257812 170.613281 215.761719 171.117188 C 215.660156 171.21875 215.605469 171.429688 215.625 171.578125 C 215.652344 171.804688 215.800781 171.992188 216.0625 172.015625 C 216.742188 172.074219 217.378906 171.933594 217.988281 171.589844 Z M 204.683594 153.015625 C 204.476562 152.285156 203.800781 152.34375 203.238281 152.246094 C 203.089844 152.21875 202.921875 152.292969 202.546875 152.355469 C 202.867188 153.414062 203.605469 153.414062 204.296875 153.453125 C 204.535156 153.464844 204.742188 153.226562 204.683594 153.015625 Z M 301.316406 135.320312 C 301.566406 135.160156 301.679688 134.910156 301.425781 134.574219 C 300.925781 134.285156 300.402344 134.371094 299.933594 134.730469 C 299.679688 134.929688 299.6875 135.234375 299.945312 135.441406 C 300.421875 135.820312 300.890625 135.585938 301.316406 135.320312 Z M 295.359375 104.792969 C 295.542969 104.699219 295.503906 104.386719 295.3125 104.046875 C 294.941406 103.957031 294.496094 103.609375 293.992188 103.941406 C 293.800781 104.066406 293.8125 104.386719 293.976562 104.554688 C 294.367188 104.953125 294.871094 105.046875 295.359375 104.792969 Z M 327.738281 119.867188 C 327.871094 119.613281 327.882812 119.359375 327.652344 119.140625 C 327.410156 118.910156 327.144531 118.957031 326.945312 119.175781 C 326.734375 119.40625 326.757812 119.679688 327.003906 119.882812 C 327.238281 120.074219 327.492188 120.082031 327.738281 119.867188 Z M 334.941406 93.46875 C 335.144531 93.21875 335.046875 92.984375 334.84375 92.777344 C 334.667969 92.597656 334.453125 92.601562 334.273438 92.769531 C 334.0625 92.96875 333.925781 93.242188 334.171875 93.464844 C 334.375 93.652344 334.671875 93.628906 334.941406 93.46875 Z M 320.867188 93.21875 C 321.007812 93.066406 321.097656 92.851562 320.886719 92.601562 C 320.71875 92.453125 320.496094 92.539062 320.339844 92.660156 C 320.160156 92.800781 320.128906 93.023438 320.3125 93.21875 C 320.496094 93.417969 320.714844 93.390625 320.867188 93.21875 Z M 364.882812 12.207031 C 365.175781 12.667969 365.023438 13.121094 364.914062 13.550781 C 362.847656 21.730469 360.121094 29.636719 355.609375 36.859375 C 352.203125 42.3125 347.679688 46.582031 342.441406 50.203125 C 336.492188 54.316406 329.984375 57.421875 323.664062 60.867188 C 321.222656 62.195312 318.914062 63.753906 316.371094 64.894531 C 315.535156 65.269531 314.851562 65.882812 314.15625 66.472656 C 313.816406 66.761719 313.503906 67.109375 313.085938 67.265625 C 311.527344 68.917969 309.988281 70.582031 308.46875 72.269531 C 306.777344 74.152344 305.101562 76.046875 303.4375 77.953125 C 305.960938 76.277344 308.71875 74.988281 311.652344 74.019531 C 314.835938 72.972656 318.058594 72.050781 321.265625 71.082031 C 321.59375 70.984375 321.929688 70.898438 322.265625 70.875 C 323.425781 70.800781 323.929688 71.5 323.539062 72.617188 C 323.503906 72.722656 323.449219 72.824219 323.394531 72.921875 C 321.105469 76.84375 318.222656 80.273438 314.519531 82.902344 C 310.691406 85.621094 306.28125 86.296875 301.6875 86.066406 C 300.609375 86.011719 299.539062 85.976562 298.453125 86.082031 C 296.554688 86.261719 295.460938 87.492188 294.457031 88.914062 C 294.152344 89.34375 293.835938 89.667969 293.515625 89.929688 C 290.542969 93.742188 287.679688 97.636719 284.992188 101.65625 C 276.613281 114.183594 268.285156 126.742188 260.03125 139.351562 C 261.515625 137.917969 263.066406 136.542969 264.667969 135.230469 C 269.660156 131.140625 275.226562 127.9375 281.195312 125.484375 C 282.484375 124.953125 282.9375 124.261719 283.078125 122.886719 C 283.617188 117.628906 285.691406 112.929688 288.675781 108.605469 C 288.726562 108.53125 288.777344 108.457031 288.832031 108.382812 C 287.140625 106.191406 287.292969 103.230469 289.304688 101.386719 C 291.367188 99.5 294.765625 99.628906 296.695312 101.664062 C 298.699219 103.785156 298.605469 106.949219 296.472656 108.96875 C 294.527344 110.808594 291.792969 110.929688 289.816406 109.390625 C 289.265625 110.460938 288.660156 111.503906 288.101562 112.570312 C 286.429688 115.769531 285.34375 119.167969 284.675781 122.707031 C 284.613281 123.03125 284.476562 123.371094 284.726562 123.679688 C 284.933594 123.855469 285.15625 123.792969 285.367188 123.710938 C 292.277344 121.105469 299.324219 118.851562 305.914062 115.445312 C 307.292969 114.734375 308.082031 113.878906 308.417969 112.335938 C 309.429688 107.683594 311.984375 103.777344 314.734375 99.996094 C 315.398438 99.078125 316.152344 98.222656 316.808594 97.300781 C 316.964844 97.082031 317.117188 96.933594 317.285156 96.867188 C 317.035156 96.683594 316.792969 96.472656 316.574219 96.214844 C 315.023438 94.398438 315.066406 91.746094 316.816406 90.09375 C 318.457031 88.542969 321.097656 88.722656 322.738281 90.5 C 324.386719 92.28125 324.320312 95.085938 322.539062 96.589844 C 321.382812 97.570312 319.640625 97.929688 318.140625 97.332031 C 318.203125 97.59375 318.003906 97.859375 317.871094 98.0625 C 316.945312 99.492188 315.953125 100.875 315.023438 102.296875 C 313.15625 105.15625 311.492188 108.121094 310.316406 111.339844 C 310.179688 111.714844 310.050781 112.089844 309.949219 112.472656 C 309.921875 112.558594 310.011719 112.679688 310.101562 112.929688 C 312.390625 111.769531 314.367188 110.203125 316.382812 108.691406 C 320.085938 105.914062 323.238281 102.566406 326.253906 99.082031 C 326.773438 98.480469 327.363281 97.9375 327.960938 97.414062 C 328.230469 97.175781 328.503906 96.742188 328.875 96.820312 C 327.15625 95.054688 327.390625 91.960938 329.101562 90.3125 C 331.148438 88.339844 334.234375 88.347656 336.113281 90.328125 C 338.007812 92.324219 337.882812 95.410156 335.828125 97.308594 C 333.867188 99.125 331.296875 99.09375 329.378906 97.316406 C 329.433594 97.628906 329.148438 97.921875 328.929688 98.191406 C 328.355469 98.894531 327.769531 99.589844 327.222656 100.3125 C 321.859375 107.40625 315.128906 112.878906 307.347656 117.121094 C 306.867188 117.382812 306.300781 117.554688 305.921875 118.164062 C 306.613281 118.800781 307.511719 118.988281 308.332031 119.292969 C 311.902344 120.625 315.601562 121.085938 319.398438 120.84375 C 319.867188 120.8125 320.335938 120.824219 320.808594 120.824219 C 320.695312 119.5 321.214844 118.15625 322.402344 117.023438 C 324.222656 115.285156 327.144531 115.265625 328.828125 117.144531 C 330.523438 119.039062 330.78125 121.75 328.660156 123.890625 C 326.851562 125.714844 323.945312 125.566406 322.132812 123.648438 C 321.671875 123.164062 321.335938 122.640625 321.109375 122.101562 C 321.003906 122.121094 320.898438 122.144531 320.792969 122.160156 C 315.472656 123 310.351562 122.402344 305.542969 119.902344 C 304.210938 119.210938 303.101562 119.203125 301.722656 119.847656 C 296.929688 122.085938 291.867188 123.652344 286.925781 125.515625 C 283.519531 126.800781 280.15625 128.183594 276.90625 129.820312 C 276.351562 130.101562 275.777344 130.351562 275.253906 130.835938 C 275.460938 131.648438 276.128906 132.09375 276.71875 132.582031 C 279.9375 135.226562 283.6875 136.578125 287.785156 137.046875 C 289.308594 137.222656 290.839844 137.335938 292.367188 137.476562 C 292.652344 137.503906 292.933594 137.535156 293.214844 137.566406 C 292.472656 135.640625 292.964844 133.359375 294.660156 131.773438 C 297.097656 129.492188 300.4375 129.597656 302.6875 132.027344 C 304.796875 134.300781 304.609375 137.414062 302.238281 139.574219 C 299.914062 141.6875 296.472656 141.542969 294.269531 139.234375 C 294.125 139.085938 294.015625 138.914062 293.894531 138.75 C 293.78125 138.796875 293.660156 138.824219 293.53125 138.824219 C 287.320312 138.871094 281.203125 138.578125 276.257812 134.042969 C 275.921875 133.738281 275.558594 133.460938 275.207031 133.171875 C 273.339844 131.628906 273.367188 131.675781 271.269531 132.957031 C 266.039062 136.160156 261.605469 140.320312 257.335938 144.65625 C 256.210938 145.792969 255.207031 147.050781 254.203125 148.308594 C 251.417969 152.59375 248.625 156.878906 245.863281 161.175781 C 249.898438 157.539062 254.648438 154.851562 259.9375 152.878906 C 265.503906 150.804688 271.296875 149.640625 277.121094 148.621094 C 282.777344 147.632812 288.445312 146.699219 294.105469 145.742188 C 294.441406 145.6875 294.78125 145.617188 295.117188 145.601562 C 295.675781 145.578125 296.320312 145.445312 296.558594 146.164062 C 296.757812 146.777344 296.441406 147.246094 296.003906 147.667969 C 294.933594 148.695312 293.671875 149.476562 292.53125 150.414062 C 287.136719 154.84375 281.796875 159.339844 275.632812 162.726562 C 270.621094 165.480469 265.183594 166.433594 259.582031 166.832031 C 257.199219 167 254.820312 167.175781 252.4375 167.367188 C 246.808594 167.816406 242.066406 170.226562 238.136719 174.160156 C 237.699219 174.597656 237.21875 175.027344 236.769531 175.484375 C 236.226562 176.339844 235.679688 177.195312 235.136719 178.050781 C 235.132812 178.0625 235.128906 178.070312 235.128906 178.078125 C 235.082031 178.246094 234.996094 178.367188 234.886719 178.445312 C 234.1875 179.554688 233.476562 180.65625 232.777344 181.765625 C 229.644531 186.753906 226.390625 191.667969 223 196.484375 C 225.804688 194.011719 228.84375 191.847656 232.21875 190.097656 C 237.285156 187.472656 242.667969 185.910156 248.265625 185.144531 C 259.214844 183.636719 270.003906 181.4375 280.542969 178.074219 C 280.921875 177.957031 281.316406 177.847656 281.707031 177.832031 C 282.859375 177.789062 283.347656 178.582031 282.820312 179.628906 C 282.140625 180.96875 281.027344 181.992188 280.027344 183.050781 C 273.863281 189.582031 266.769531 194.78125 258.257812 197.886719 C 253.480469 199.632812 248.574219 200.296875 243.5 199.816406 C 239.308594 199.421875 235.113281 199.0625 230.902344 198.984375 C 230.621094 198.980469 230.339844 199.023438 230.054688 199.042969 C 229.894531 199.046875 229.738281 199.046875 229.578125 199.046875 C 229.398438 198.996094 229.234375 199.007812 229.089844 199.136719 C 228.941406 199.039062 228.796875 199.050781 228.652344 199.128906 C 228.789062 199.214844 228.9375 199.238281 229.089844 199.148438 C 229.222656 199.289062 229.386719 199.3125 229.570312 199.269531 C 229.730469 199.292969 229.890625 199.316406 230.050781 199.339844 C 237.351562 200.320312 243.671875 203.933594 250.257812 206.847656 C 250.886719 207.125 251.628906 207.402344 251.503906 208.246094 C 251.40625 208.925781 250.769531 209.214844 250.132812 209.367188 C 245.246094 210.53125 240.332031 211.414062 235.277344 210.796875 C 232.246094 210.425781 229.640625 209.128906 227.335938 207.167969 C 225.953125 205.992188 224.550781 204.835938 223.15625 203.679688 C 222.402344 203.054688 221.539062 202.632812 220.609375 202.335938 C 220 202.136719 219.582031 201.871094 219.34375 201.554688 C 218.242188 203.042969 217.136719 204.53125 216 205.992188 C 212.4375 210.5625 208.617188 214.914062 204.65625 219.152344 C 198.082031 226.183594 191.128906 232.8125 184.007812 239.269531 C 183.632812 239.609375 183.25 239.941406 182.875 240.28125 C 192.460938 234.46875 202.871094 230.886719 214.207031 229.765625 C 220.824219 229.109375 227.421875 228.289062 233.945312 226.949219 C 234.332031 226.871094 234.734375 226.796875 235.125 226.8125 C 236.222656 226.859375 236.597656 227.550781 236.058594 228.542969 C 235.84375 228.9375 235.585938 229.324219 235.273438 229.648438 C 233.789062 231.214844 232.28125 232.761719 230.78125 234.3125 C 225.417969 239.460938 219.023438 242.320312 211.628906 243.023438 C 206.980469 243.46875 202.316406 243.59375 197.660156 243.488281 C 190.535156 243.328125 183.621094 244.351562 176.894531 246.707031 C 175.988281 247.023438 175.070312 247.300781 174.253906 247.855469 C 174.1875 247.898438 174.113281 247.914062 174.046875 247.953125 C 171.410156 250.15625 168.738281 252.320312 166 254.410156 C 157.222656 261.101562 148.121094 267.269531 138.746094 272.988281 C 141.691406 272.253906 144.710938 271.882812 147.804688 271.859375 C 148.371094 271.855469 148.964844 271.765625 149.507812 271.886719 C 152.144531 272.46875 154.070312 271.179688 155.898438 269.566406 C 160.933594 265.121094 166.640625 261.796875 172.914062 259.4375 C 177.253906 257.804688 181.785156 257.035156 186.386719 256.609375 C 189.667969 256.304688 192.949219 255.984375 196.230469 255.671875 C 196.457031 255.648438 196.683594 255.605469 196.910156 255.59375 C 197.457031 255.566406 197.945312 255.699219 198.136719 256.28125 C 198.308594 256.804688 197.988281 257.15625 197.609375 257.433594 C 197.015625 257.871094 196.382812 258.25 195.796875 258.699219 C 193.050781 260.800781 190.292969 262.886719 187.582031 265.039062 C 183.132812 268.578125 178.035156 270.660156 172.550781 271.941406 C 168.15625 272.96875 163.6875 273.347656 159.214844 273.699219 C 159.070312 273.683594 158.890625 273.664062 158.886719 273.851562 C 158.878906 274.027344 159.058594 274.035156 159.203125 274.035156 C 166.101562 276.382812 171.617188 281.015625 177.476562 285.074219 C 177.710938 285.234375 177.90625 285.449219 178.101562 285.65625 C 179.140625 286.761719 178.992188 287.421875 177.546875 287.816406 C 176.007812 288.238281 174.414062 288.371094 172.828125 288.472656 C 167.085938 288.851562 161.644531 287.703125 156.457031 285.242188 C 152.925781 283.566406 150.585938 280.679688 148.449219 277.5625 C 147.808594 276.628906 147.171875 275.691406 146.53125 274.757812 C 145.882812 273.820312 145.007812 273.515625 143.871094 273.648438 C 140.328125 274.0625 136.902344 274.929688 133.539062 276.09375 C 126.113281 280.449219 118.527344 284.546875 110.792969 288.402344 C 104.113281 291.730469 97.386719 294.964844 90.667969 298.214844 C 97.617188 296.347656 104.75 295.820312 112.128906 296.890625 C 118.445312 297.808594 124.824219 297.828125 131.199219 297.675781 C 131.824219 297.660156 132.449219 297.675781 133.074219 297.710938 C 133.675781 297.742188 134.207031 297.957031 134.414062 298.578125 C 134.617188 299.175781 134.179688 299.535156 133.796875 299.867188 C 132.417969 301.074219 130.773438 301.871094 129.207031 302.773438 C 124.539062 305.472656 119.890625 308.207031 114.886719 310.257812 C 107.804688 313.160156 100.527344 313.421875 93.113281 311.90625 C 90.15625 311.300781 87.296875 310.367188 84.460938 309.339844 C 81.195312 308.160156 77.902344 307.09375 74.421875 306.726562 C 74.175781 306.699219 73.898438 306.691406 73.679688 306.589844 C 71.3125 307.78125 68.941406 308.964844 66.59375 310.1875 C 62.214844 312.472656 57.746094 314.613281 53.71875 317.511719 C 52.015625 318.738281 50.324219 319.980469 48.761719 321.398438 C 48.160156 321.945312 47.558594 322.488281 46.957031 323.035156 C 50.917969 320.734375 55.117188 318.925781 59.683594 317.886719 C 64.460938 316.796875 69.269531 316.855469 74.097656 317.382812 C 76.527344 317.644531 78.953125 317.953125 81.378906 318.253906 C 82.121094 318.347656 82.917969 318.484375 83.207031 319.289062 C 83.527344 320.171875 82.953125 320.792969 82.351562 321.351562 C 81.976562 321.699219 81.605469 322.050781 81.230469 322.398438 C 76.085938 327.183594 69.84375 329.246094 62.980469 329.835938 C 58.089844 330.253906 53.207031 330.148438 48.328125 329.765625 C 45.808594 329.566406 43.332031 329.691406 40.882812 330.304688 C 40.296875 330.453125 39.742188 330.511719 39.171875 330.320312 C 38.347656 331.125 37.527344 331.933594 36.722656 332.761719 C 33.113281 336.472656 30.175781 340.746094 27.296875 345.042969 C 23.785156 350.289062 20.835938 355.875 17.453125 361.199219 C 16.296875 363.023438 15.0625 364.789062 13.394531 366.210938 C 11.164062 368.113281 8.894531 367.546875 7.910156 364.792969 C 7.296875 363.074219 7.390625 361.324219 7.757812 359.574219 C 8.195312 357.5 9.03125 355.574219 10.011719 353.703125 C 12.289062 349.351562 15.140625 345.414062 18.304688 341.667969 C 20.359375 339.234375 22.511719 336.898438 24.65625 334.550781 C 27.121094 331.851562 29.980469 329.574219 32.894531 327.410156 C 33.449219 326.996094 34.023438 326.613281 34.582031 326.210938 C 34.640625 326.011719 34.683594 325.804688 34.761719 325.613281 C 35.621094 323.542969 34.945312 321.886719 33.585938 320.300781 C 32.703125 319.273438 31.898438 318.160156 31.15625 317.023438 C 28.742188 313.335938 28.550781 309.375 29.800781 305.25 C 30.714844 302.230469 32.265625 299.523438 33.917969 296.871094 C 34.121094 296.539062 34.417969 296.242188 34.726562 296.003906 C 35.460938 295.433594 36.128906 295.582031 36.476562 296.453125 C 36.746094 297.132812 36.914062 297.867188 37.023438 298.59375 C 37.949219 304.601562 39.085938 310.582031 39.160156 316.691406 C 39.164062 316.851562 39.183594 317.019531 39.40625 317.097656 C 39.949219 316.875 39.941406 316.308594 40.128906 315.855469 C 42.257812 310.65625 44.304688 305.414062 47.046875 300.496094 C 50.039062 295.136719 53.90625 290.539062 58.875 286.832031 C 63.203125 283.605469 67.875 280.921875 72.273438 277.8125 C 72.59375 277.585938 72.96875 277.398438 73.347656 277.308594 C 74.039062 277.144531 74.570312 277.652344 74.519531 278.367188 C 74.511719 278.476562 74.484375 278.597656 74.433594 278.695312 C 72.066406 282.910156 71.074219 287.765625 68.425781 291.835938 C 66.433594 294.898438 63.882812 297.457031 61.085938 299.828125 C 57.574219 302.808594 53.867188 305.515625 50.21875 308.3125 C 48.363281 309.734375 46.632812 311.277344 44.925781 312.859375 C 41.875 315.679688 39.785156 319.175781 37.941406 322.84375 C 37.691406 323.339844 37.457031 323.84375 37.207031 324.34375 C 49.828125 315.597656 63.5 308.652344 77.203125 301.777344 C 79.378906 297.957031 80.398438 293.792969 81.226562 289.542969 C 82.363281 283.734375 83.6875 277.984375 85.976562 272.492188 C 88.308594 266.894531 91.3125 261.691406 95.34375 257.160156 C 98.957031 253.101562 103.296875 249.886719 108.023438 247.214844 C 110.246094 245.957031 112.503906 244.769531 114.757812 243.566406 C 115.253906 243.296875 115.773438 243.039062 116.3125 242.886719 C 117.5625 242.535156 118.175781 243.160156 117.875 244.433594 C 117.808594 244.707031 117.710938 244.980469 117.585938 245.234375 C 114.585938 251.457031 112.730469 258.085938 110.679688 264.640625 C 108.855469 270.464844 106.636719 276.097656 103.074219 281.121094 C 99.75 285.804688 95.539062 289.582031 91.128906 293.183594 C 89.082031 294.851562 86.960938 296.417969 84.851562 298 C 92.476562 294.269531 100.140625 290.613281 107.746094 286.847656 C 107.910156 286.453125 107.9375 286.007812 108.023438 285.59375 C 109.222656 279.941406 112.066406 275.210938 115.898438 270.945312 C 119.964844 266.421875 124.402344 262.269531 128.511719 257.800781 C 129.175781 257.179688 129.839844 256.558594 130.503906 255.933594 C 130.9375 255.527344 131.421875 255.203125 132.027344 255.480469 C 132.667969 255.769531 132.925781 256.355469 132.886719 257.019531 C 132.839844 257.867188 132.792969 258.730469 132.613281 259.558594 C 131.316406 265.46875 128.839844 270.789062 124.957031 275.496094 C 123.179688 277.644531 121.167969 279.476562 119.007812 281.117188 C 127.289062 276.765625 135.355469 272.0625 143.238281 267.046875 C 143.320312 266.644531 143.933594 266.363281 144.207031 266.054688 C 147.046875 262.875 149.824219 259.621094 151.917969 255.917969 C 153.699219 252.769531 153.472656 249.351562 152.042969 246.050781 C 150.734375 243.035156 148.503906 240.652344 146.457031 238.15625 C 143.382812 234.40625 140.582031 230.5 138.882812 225.910156 C 138.792969 225.671875 138.640625 225.386719 138.539062 225.105469 C 137.199219 224.902344 135.917969 224.308594 134.9375 223.285156 C 132.410156 220.644531 132.671875 216.5625 135.546875 213.859375 C 137.902344 211.644531 141.765625 211.871094 144.117188 214.363281 C 146.589844 216.988281 146.484375 221.125 143.878906 223.542969 C 142.835938 224.511719 141.519531 225.027344 140.164062 225.15625 C 140.175781 225.179688 140.1875 225.210938 140.199219 225.234375 C 142.527344 230.214844 145.644531 234.652344 149.195312 238.820312 C 150.847656 240.761719 152.375 242.8125 153.476562 245.152344 C 154.316406 246.941406 154.53125 248.851562 154.738281 250.773438 C 154.769531 250.855469 154.785156 250.992188 154.839844 251.011719 C 155.019531 251.066406 155.0625 250.914062 155.097656 250.777344 C 157.367188 247.152344 159.035156 243.234375 160.566406 239.257812 C 163.347656 232.027344 165.136719 224.5 167.203125 217.050781 C 167.921875 214.464844 167.769531 212.371094 166.382812 210.015625 C 163.09375 204.40625 162.296875 198.15625 162.429688 191.753906 C 162.433594 191.574219 162.433594 191.386719 162.457031 191.207031 C 161.847656 190.898438 161.265625 190.476562 160.742188 189.910156 C 158.582031 187.589844 158.660156 183.929688 160.914062 181.789062 C 163.152344 179.664062 166.917969 179.785156 169.042969 182.050781 C 171.246094 184.394531 171.113281 187.867188 168.738281 190.097656 C 167.238281 191.503906 165.4375 192.011719 163.753906 191.664062 C 163.792969 192.152344 163.835938 192.644531 163.859375 193.132812 C 164.164062 198.972656 165.105469 204.660156 167.871094 209.910156 C 168.027344 210.203125 168.078125 210.570312 168.59375 210.746094 C 169.019531 210.328125 169.046875 209.699219 169.203125 209.140625 C 170.714844 203.660156 172.269531 198.191406 174.484375 192.941406 C 176.6875 187.714844 179.71875 183.035156 183.449219 178.75 C 186.464844 175.285156 189.742188 172.050781 192.613281 168.449219 C 194.648438 165.894531 196.261719 163.117188 197.570312 160.140625 C 197.886719 159.414062 198.238281 158.699219 198.546875 157.96875 C 198.570312 157.917969 198.59375 157.878906 198.617188 157.832031 C 198.386719 157.648438 198.15625 157.46875 197.945312 157.25 C 195.8125 155.394531 195.171875 151.320312 198.058594 148.390625 C 199.914062 146.503906 204.414062 145.5625 207.09375 148.609375 C 209.402344 151.230469 209.347656 155.117188 206.816406 157.515625 C 204.851562 159.375 202.066406 159.707031 199.789062 158.589844 C 199.753906 158.773438 199.683594 158.949219 199.625 159.128906 C 198.222656 163.457031 195.929688 167.253906 192.972656 170.710938 C 189.394531 174.894531 185.421875 178.730469 182.113281 183.148438 C 180.648438 185.105469 179.347656 187.167969 178.183594 189.316406 C 178.03125 189.59375 177.960938 189.914062 177.738281 190.53125 C 180.011719 188.910156 181.875 187.347656 183.960938 186.089844 C 187.820312 183.765625 191.964844 182.046875 196.085938 180.28125 C 200.15625 178.535156 204.230469 176.796875 207.945312 174.34375 C 208.222656 174.160156 208.527344 174.019531 208.824219 173.875 C 207.980469 171.777344 208.132812 168.941406 210.253906 166.902344 C 212.699219 164.546875 216.878906 164.703125 219.167969 167.207031 C 221.484375 169.742188 221.316406 173.558594 218.789062 175.9375 C 216.152344 178.421875 212.523438 178.253906 209.972656 175.667969 C 209.753906 175.449219 209.558594 175.191406 209.375 174.914062 C 208.839844 175.433594 208.277344 175.914062 207.65625 176.34375 C 203.941406 178.929688 199.78125 180.609375 195.652344 182.363281 C 191.3125 184.203125 186.949219 186.003906 183.007812 188.628906 C 180.015625 190.621094 177.1875 192.800781 175.351562 195.996094 C 174.460938 197.539062 174.046875 199.261719 173.503906 200.929688 C 171.519531 207.046875 170.011719 213.292969 168.390625 219.507812 C 167.316406 223.632812 166.222656 227.753906 164.988281 231.835938 C 164.832031 232.363281 164.527344 232.882812 164.691406 233.488281 C 165.496094 233.605469 165.925781 233.019531 166.441406 232.601562 C 169.269531 230.316406 171.4375 227.503906 173.121094 224.296875 C 174.015625 222.585938 174.890625 220.867188 175.792969 219.164062 C 175.824219 219.105469 175.855469 219.042969 175.890625 218.976562 C 175.347656 218.707031 174.84375 218.359375 174.414062 217.890625 C 172.269531 215.527344 172.167969 212.085938 174.6875 209.847656 C 176.980469 207.6875 180.476562 207.773438 182.597656 210.039062 C 184.75 212.339844 184.648438 215.804688 182.367188 217.953125 C 180.917969 219.320312 178.90625 219.820312 177.109375 219.425781 C 177.066406 219.535156 177.019531 219.648438 176.976562 219.753906 C 174.847656 224.871094 172.46875 229.824219 167.9375 233.351562 C 167.082031 234.019531 166.199219 234.664062 165.183594 235.019531 C 164.03125 235.421875 163.539062 236.21875 163.160156 237.308594 C 161.015625 243.441406 158.285156 249.300781 154.738281 254.761719 C 152.578125 258.089844 150.257812 261.292969 147.605469 264.226562 C 150.113281 262.578125 152.609375 260.90625 155.078125 259.199219 C 162.5625 254.019531 169.667969 248.371094 176.566406 242.429688 C 180.96875 238.636719 185.25 234.714844 189.472656 230.730469 C 189.460938 230.621094 189.453125 230.507812 189.441406 230.402344 C 188.957031 226.050781 188.382812 221.710938 188.5 217.308594 C 188.667969 211.101562 190.992188 205.6875 194.53125 200.742188 C 197.730469 196.265625 201.046875 191.871094 204.324219 187.453125 C 204.6875 186.964844 205.078125 186.359375 205.835938 186.582031 C 206.519531 186.777344 206.75 187.363281 206.871094 188.015625 C 208.132812 194.726562 207.828125 201.234375 204.648438 207.464844 C 201.855469 212.929688 198.898438 218.292969 195.5 223.40625 C 194.703125 224.605469 193.984375 225.851562 193.289062 227.105469 C 194.441406 226 195.59375 224.898438 196.738281 223.785156 C 208.203125 212.652344 217.972656 200.132812 226.6875 186.757812 C 229.652344 182.214844 232.558594 177.636719 235.460938 173.054688 C 235.746094 172.054688 236.027344 171.054688 236.371094 170.078125 C 236.746094 169.007812 236.4375 168.285156 235.679688 167.503906 C 234.226562 166.011719 232.351562 165.140625 230.703125 163.949219 C 224.53125 159.492188 221.84375 153.378906 221.953125 145.894531 C 221.957031 145.609375 221.992188 145.328125 222.03125 145.046875 C 222.128906 144.359375 222.242188 143.636719 222.984375 143.359375 C 223.769531 143.0625 224.25 143.636719 224.71875 144.136719 C 227.832031 147.453125 230.953125 150.765625 234.0625 154.089844 C 235.359375 155.476562 236.074219 157.234375 237.023438 158.839844 C 237.003906 159.152344 237.203125 159.335938 237.40625 159.519531 C 237.488281 159.277344 237.433594 159.054688 237.320312 158.835938 C 237.289062 157.859375 237.027344 156.929688 236.738281 156.011719 C 233.660156 146.304688 233.484375 136.449219 235.1875 126.492188 C 235.980469 121.839844 236.78125 117.1875 237.582031 112.539062 C 237.628906 112.257812 237.699219 111.984375 237.753906 111.703125 C 237.886719 111.046875 238.191406 110.511719 238.886719 110.355469 C 239.492188 110.21875 239.789062 110.734375 240.128906 111.097656 C 240.359375 111.34375 240.578125 111.617188 240.742188 111.914062 C 245.371094 120.222656 246.84375 128.839844 243.324219 137.964844 C 242.507812 140.085938 241.617188 142.175781 240.667969 144.238281 C 240.074219 145.527344 239.527344 146.835938 238.96875 148.140625 C 237.839844 150.777344 237.496094 153.386719 238.496094 156.222656 C 239.695312 159.621094 239.601562 163.152344 238.785156 166.660156 C 238.703125 167.015625 238.59375 167.382812 238.539062 167.753906 C 238.566406 167.863281 238.589844 167.972656 238.617188 168.078125 C 242.605469 161.792969 246.613281 155.519531 250.753906 149.332031 C 253.921875 144.597656 257.058594 139.835938 260.191406 135.070312 C 260.992188 132.789062 260.742188 130.402344 260.101562 128.011719 C 259.453125 125.601562 258.617188 123.242188 257.828125 120.875 C 256.753906 117.640625 255.769531 114.382812 255.027344 111.054688 C 252.964844 101.835938 254.894531 93.375 259.796875 85.453125 C 262.070312 81.78125 264.78125 78.429688 267.4375 75.039062 C 268.484375 73.703125 269.542969 72.371094 270.441406 71.234375 C 271.199219 70.628906 271.660156 69.875 272.535156 70.355469 C 273.304688 70.78125 273.359375 71.546875 273.25 72.304688 C 272.832031 75.285156 272.363281 78.261719 271.953125 81.242188 C 270.578125 91.222656 269.746094 101.253906 269.796875 111.320312 C 269.820312 115.746094 269.058594 119.878906 267.578125 123.824219 C 272.5625 116.238281 277.570312 108.671875 282.707031 101.191406 C 285.183594 97.582031 287.757812 94.046875 290.417969 90.578125 C 290.390625 90.386719 290.476562 90.234375 290.605469 90.109375 C 290.246094 89.894531 289.882812 89.621094 289.511719 89.246094 C 286.824219 86.535156 285.914062 83.273438 286.363281 79.570312 C 286.671875 77.007812 287.527344 74.59375 288.46875 72.210938 C 291.289062 65.082031 294.335938 58.039062 296.914062 50.8125 C 297.371094 49.53125 297.804688 48.238281 298.269531 46.953125 C 298.523438 46.253906 298.800781 45.519531 299.71875 45.496094 C 300.691406 45.472656 300.878906 46.296875 301.144531 46.964844 C 304.527344 55.546875 304.40625 64.023438 300.503906 72.453125 C 298.808594 76.113281 296.953125 79.6875 295.007812 83.21875 C 294.4375 84.253906 293.871094 85.308594 293.664062 86.472656 C 295.410156 84.292969 297.183594 82.128906 299.007812 80.007812 C 303.625 74.636719 308.421875 69.445312 313.394531 64.425781 C 317.378906 55.789062 321.691406 47.328125 326.929688 39.359375 C 329.46875 35.496094 333 32.804688 336.976562 30.640625 C 342.328125 27.726562 347.28125 24.265625 351.96875 20.371094 C 355.101562 17.769531 358.242188 15.136719 361.75 13.019531 C 362.703125 12.441406 363.664062 11.761719 364.882812 12.207031 Z M 235.796875 140.003906 C 235.980469 137.199219 236.332031 134.40625 236.789062 131.617188 C 236.855469 131.195312 236.980469 130.746094 237.488281 130.867188 C 238.027344 131 237.808594 131.511719 237.765625 131.882812 C 237.371094 135.378906 236.898438 138.867188 236.871094 142.398438 C 236.859375 143.640625 236.832031 144.882812 236.957031 146.148438 C 237.722656 144.300781 237.914062 142.332031 238.164062 140.390625 C 238.804688 135.429688 239.234375 130.453125 239.417969 125.457031 C 239.425781 125.230469 239.421875 125 239.460938 124.777344 C 239.542969 124.308594 239.421875 123.59375 240.164062 123.679688 C 240.734375 123.746094 240.640625 124.367188 240.617188 124.8125 C 240.460938 127.816406 240.277344 130.820312 240.136719 133.828125 C 240.105469 134.519531 239.859375 135.21875 240.152344 135.90625 C 241.113281 133.664062 241.109375 131.238281 241.480469 128.878906 C 241.621094 127.976562 241.363281 126.976562 242.050781 126.039062 C 243.050781 126.800781 242.6875 127.769531 242.605469 128.585938 C 242.25 132.136719 241.671875 135.65625 240.722656 139.109375 C 240.503906 139.898438 240.320312 140.699219 240.128906 141.496094 C 240.554688 140.53125 240.972656 139.566406 241.367188 138.585938 C 244.65625 130.382812 244.109375 122.390625 240.199219 114.554688 C 239.960938 114.078125 239.90625 113.425781 239.085938 113.140625 C 237.515625 122.082031 235.480469 130.957031 235.796875 140.003906 Z M 240.136719 136.03125 C 239.976562 136.230469 240.023438 136.367188 240.257812 136.445312 C 240.21875 136.308594 240.179688 136.171875 240.136719 136.03125 Z M 239.820312 137.082031 C 240.03125 136.933594 240.199219 136.761719 240.253906 136.496094 C 239.972656 136.589844 239.84375 136.796875 239.820312 137.082031 Z M 175.335938 216.777344 C 176.972656 218.558594 179.730469 218.671875 181.425781 217.027344 C 183.09375 215.40625 183.136719 212.800781 181.523438 211.074219 C 179.925781 209.371094 177.25 209.238281 175.5625 210.78125 C 173.917969 212.289062 173.808594 215.113281 175.335938 216.777344 Z M 211.035156 174.625 C 212.839844 176.664062 215.894531 176.875 217.894531 175.101562 C 219.761719 173.445312 219.914062 170.257812 218.210938 168.355469 C 216.328125 166.253906 213.4375 166.042969 211.410156 167.859375 C 209.3125 169.738281 209.160156 172.507812 211.035156 174.625 Z M 199.003906 156.167969 C 200.820312 158.085938 203.839844 158.21875 205.757812 156.464844 C 207.699219 154.695312 207.726562 151.585938 205.824219 149.597656 C 203.859375 147.546875 201.203125 147.449219 199.175781 149.359375 C 197.140625 151.277344 197.066406 154.128906 199.003906 156.167969 Z M 161.570312 188.992188 C 163.1875 190.792969 166.09375 190.910156 167.851562 189.246094 C 169.632812 187.566406 169.707031 184.964844 168.027344 183.167969 C 166.351562 181.371094 163.691406 181.230469 161.929688 182.847656 C 160.164062 184.464844 160.003906 187.246094 161.570312 188.992188 Z M 135.933594 222.132812 C 137.820312 224.15625 140.960938 224.246094 142.957031 222.332031 C 144.84375 220.527344 144.925781 217.503906 143.140625 215.582031 C 141.363281 213.667969 137.964844 213.480469 135.992188 215.191406 C 134.132812 216.800781 134.105469 220.171875 135.933594 222.132812 Z M 45.492188 307.117188 C 49.335938 302.058594 53.789062 297.550781 58.480469 293.265625 C 60.246094 291.652344 61.660156 289.699219 63.484375 288.148438 C 63.785156 287.890625 64.066406 287.605469 64.378906 287.359375 C 64.589844 287.195312 64.832031 287.289062 64.984375 287.453125 C 65.132812 287.617188 65.210938 287.851562 65.03125 288.070312 C 64.496094 288.730469 64.007812 289.4375 63.414062 290.039062 C 60.546875 292.957031 57.703125 295.898438 54.765625 298.75 C 52.511719 300.9375 50.308594 303.210938 48.226562 305.9375 C 52.523438 302.640625 56.457031 299.320312 60.675781 296.378906 C 60.769531 296.3125 61.023438 296.335938 61.167969 296.78125 C 60.164062 297.949219 58.921875 299.070312 57.574219 300.054688 C 53.207031 303.246094 49.035156 306.664062 45.15625 310.425781 C 47.292969 308.671875 49.484375 307.046875 51.652344 305.394531 C 54.085938 303.542969 56.484375 301.632812 58.902344 299.765625 C 61.578125 297.699219 63.925781 295.332031 66.023438 292.71875 C 68.914062 289.109375 69.960938 284.59375 71.785156 280.460938 C 71.820312 280.386719 71.734375 280.257812 71.675781 280.066406 C 67.34375 282.792969 62.960938 285.410156 58.980469 288.585938 C 54.597656 292.078125 50.988281 296.289062 48.332031 301.269531 C 47.308594 303.183594 46.359375 305.128906 45.492188 307.117188 Z M 34.199219 318.65625 C 34.519531 319.015625 34.785156 319.425781 35.058594 319.835938 C 34.652344 317.859375 34.046875 315.929688 33.613281 313.960938 C 32.847656 310.515625 33.183594 307.078125 33.710938 303.640625 C 33.765625 303.296875 33.84375 302.96875 34.417969 302.898438 C 35.011719 303.742188 34.652344 304.710938 34.542969 305.582031 C 34.078125 309.191406 34.457031 312.710938 35.441406 316.1875 C 35.582031 316.6875 35.558594 317.308594 36.179688 317.550781 C 35.992188 315.128906 35.800781 312.710938 35.621094 310.292969 C 35.59375 309.910156 35.480469 309.390625 36.03125 309.347656 C 36.546875 309.308594 36.589844 309.78125 36.625 310.199219 C 36.914062 313.433594 37.109375 316.667969 37.234375 319.910156 C 37.742188 318.476562 37.828125 316.988281 37.746094 315.5 C 37.425781 309.710938 36.382812 304.015625 35.421875 298.023438 C 34.824219 298.335938 34.582031 298.648438 34.394531 298.980469 C 33.488281 300.550781 32.617188 302.140625 31.894531 303.808594 C 29.53125 309.253906 30.242188 314.226562 34.199219 318.65625 Z M 35.882812 318.167969 C 35.824219 318.132812 35.84375 318.179688 35.882812 318.167969 Z M 36.171875 317.601562 C 35.949219 317.660156 35.914062 317.804688 35.980469 317.988281 C 36.042969 317.859375 36.105469 317.730469 36.171875 317.601562 Z M 50.265625 326.144531 C 50.339844 326.324219 50.480469 326.382812 50.671875 326.335938 C 50.625 326.113281 50.445312 326.125 50.265625 326.144531 Z M 49.582031 326.488281 C 49.882812 326.558594 50.042969 326.378906 50.183594 326.160156 C 49.933594 326.183594 49.738281 326.300781 49.582031 326.488281 Z M 10.613281 365.25 C 10.703125 365.019531 10.839844 364.785156 10.917969 364.597656 C 13.679688 357.816406 17.261719 351.507812 21.816406 345.753906 C 24.738281 342.066406 27.828125 338.535156 31.101562 335.148438 C 32.625 333.570312 34.1875 332.015625 35.472656 330.1875 C 32.945312 332.550781 30.425781 334.925781 27.890625 337.277344 C 21.46875 343.234375 16.363281 350.148438 12.652344 358.089844 C 12.53125 358.34375 12.414062 358.601562 12.28125 358.851562 C 12.15625 359.082031 11.953125 359.15625 11.714844 359.050781 C 11.480469 358.949219 11.335938 358.730469 11.402344 358.507812 C 11.550781 358.027344 11.738281 357.550781 11.957031 357.09375 C 14.523438 351.71875 17.601562 346.6875 21.585938 342.214844 C 24.417969 339.027344 27.210938 335.796875 30.507812 333.097656 C 33.042969 331.023438 35.511719 328.867188 38.019531 326.757812 C 35.472656 328.507812 32.988281 330.34375 30.644531 332.363281 C 25.128906 337.113281 20.070312 342.332031 15.699219 348.175781 C 13.28125 351.410156 11.167969 354.847656 9.933594 358.742188 C 9.414062 360.386719 9.144531 362.074219 9.609375 363.777344 C 9.839844 364.617188 10.175781 365.101562 10.613281 365.25 Z M 29.492188 338.519531 C 29.050781 338.996094 28.589844 339.457031 28.152344 339.9375 C 21.472656 347.3125 15.824219 355.371094 12.042969 364.644531 C 12.003906 364.738281 11.957031 364.832031 11.90625 364.921875 C 12.039062 364.832031 12.171875 364.738281 12.316406 364.617188 C 13.777344 363.394531 14.757812 361.785156 15.757812 360.207031 C 19.132812 354.886719 22.050781 349.285156 25.589844 344.066406 C 26.863281 342.191406 28.152344 340.335938 29.492188 338.519531 Z M 59.636719 319.523438 C 55.640625 320.480469 51.925781 322.003906 48.390625 323.917969 C 51.953125 322.503906 55.699219 321.625 59.402344 320.613281 C 59.839844 320.492188 60.273438 320.34375 60.714844 320.285156 C 61.011719 320.242188 61.265625 320.425781 61.320312 320.753906 C 61.371094 321.035156 61.15625 321.179688 60.949219 321.242188 C 59.96875 321.539062 58.980469 321.796875 58.003906 322.089844 C 56.082031 322.660156 54.089844 323.003906 52.273438 323.90625 C 52.496094 324.132812 52.773438 324.015625 53.015625 323.976562 C 59.945312 322.777344 66.976562 322.199219 73.855469 320.679688 C 74.429688 320.550781 75.054688 320.222656 75.757812 320.734375 C 75.667969 321.765625 74.753906 321.742188 74.0625 321.925781 C 69.070312 323.273438 64.007812 324.238281 58.855469 324.738281 C 56.539062 324.964844 54.234375 325.289062 51.960938 325.785156 C 51.527344 325.878906 50.9375 325.75 50.71875 326.335938 C 54.792969 326.113281 58.878906 326.546875 62.953125 326.117188 C 63.507812 326.058594 64.371094 325.757812 64.574219 326.914062 C 62.59375 327.332031 60.605469 327.488281 58.65625 327.351562 C 54.628906 327.074219 50.679688 327.492188 46.742188 328.082031 C 47.757812 328.097656 48.769531 328.15625 49.789062 328.234375 C 53.707031 328.535156 57.628906 328.5625 61.550781 328.285156 C 66.230469 327.949219 70.820312 327.195312 74.992188 324.875 C 77.253906 323.613281 79.460938 322.25 81.34375 319.910156 C 73.933594 318.917969 66.828125 317.808594 59.636719 319.523438 Z M 49.941406 324.460938 C 49.953125 324.457031 49.972656 324.472656 49.988281 324.480469 C 50.015625 324.386719 49.972656 324.410156 49.941406 324.460938 Z M 49.996094 324.484375 C 50.011719 324.492188 50.019531 324.484375 50.039062 324.5 C 50.261719 324.417969 50.527344 324.445312 50.71875 324.285156 C 50.476562 324.351562 50.238281 324.417969 49.996094 324.484375 Z M 51.46875 324.078125 C 51.242188 324.015625 51.070312 324.160156 50.878906 324.234375 C 51.128906 324.386719 51.308594 324.265625 51.46875 324.078125 Z M 52.210938 323.910156 C 51.933594 323.683594 51.757812 323.898438 51.5625 324.050781 C 51.851562 324.367188 52.03125 324.140625 52.210938 323.910156 Z M 167.527344 263.480469 C 164.171875 265.183594 161.117188 267.308594 158.183594 269.652344 C 164.550781 266.039062 171.101562 262.796875 178.546875 261.300781 C 178.410156 262.417969 177.636719 262.449219 177.058594 262.625 C 173.050781 263.828125 169.117188 265.238281 165.320312 267 C 164.609375 267.328125 163.828125 267.554688 163.261719 268.148438 C 162.8125 267.941406 162.648438 268.507812 162.277344 268.507812 C 162.292969 268.515625 162.304688 268.507812 162.320312 268.523438 C 162.695312 268.679688 162.992188 268.527344 163.269531 268.289062 C 166.441406 267.640625 169.386719 266.324219 172.417969 265.253906 C 176.148438 263.933594 179.878906 262.601562 183.613281 261.285156 C 184.183594 261.085938 184.746094 260.746094 185.496094 261.035156 C 185.441406 262.023438 184.636719 262.132812 184.003906 262.359375 C 176.976562 264.890625 170.125 267.914062 162.925781 269.972656 C 162.699219 270.039062 162.332031 269.996094 162.246094 270.433594 C 167.097656 269.445312 171.847656 268.210938 176.503906 266.601562 C 177.039062 266.417969 177.585938 266.261719 178.132812 266.117188 C 178.355469 266.058594 178.597656 266.105469 178.710938 266.34375 C 178.863281 266.667969 178.667969 266.914062 178.417969 267.042969 C 178.070312 267.222656 177.679688 267.320312 177.308594 267.457031 C 172.082031 269.386719 166.660156 270.566406 161.242188 271.78125 C 165.589844 271.578125 169.871094 270.886719 174.121094 269.832031 C 182.003906 267.875 188.015625 262.910156 194.296875 257.613281 C 182.542969 258.265625 176.3125 259.019531 167.527344 263.480469 Z M 161.570312 270.558594 L 161.515625 270.476562 L 161.457031 270.574219 Z M 152.921875 280.828125 C 153.640625 281.550781 154.328125 282.289062 155.222656 282.832031 C 160.910156 286.265625 167.078125 287.535156 173.65625 286.984375 C 174.585938 286.910156 175.558594 286.933594 176.550781 286.34375 C 170.433594 281.511719 164.246094 277.039062 156.898438 274.90625 C 158.964844 275.835938 160.921875 276.992188 162.839844 278.242188 C 164.066406 279.039062 165.300781 279.832031 166.523438 280.640625 C 166.796875 280.824219 167.101562 281.027344 166.96875 281.496094 C 166.457031 281.882812 166.078125 281.488281 165.640625 281.246094 C 162.777344 279.660156 160.164062 277.652344 157.195312 276.253906 C 155.523438 275.464844 153.859375 274.601562 151.945312 274.535156 C 151.816406 274.386719 151.671875 274.253906 151.453125 274.296875 C 151.4375 274.300781 151.421875 274.40625 151.441406 274.441406 C 151.554688 274.625 151.707031 274.730469 151.933594 274.644531 C 157.371094 278.414062 162.707031 282.378906 169.289062 284.042969 C 169.792969 284.167969 170.800781 284.070312 170.519531 285.027344 C 170.292969 285.785156 169.550781 285.324219 169.046875 285.222656 C 164.472656 284.289062 160.40625 282.230469 156.613281 279.566406 C 154.507812 278.089844 152.441406 276.542969 149.789062 275.167969 C 152.730469 278.789062 156.054688 281.273438 159.804688 283.21875 C 160.355469 283.503906 160.894531 283.816406 161.453125 284.082031 C 161.757812 284.226562 161.925781 284.457031 161.84375 284.742188 C 161.707031 285.238281 161.320312 285.050781 161.015625 284.9375 C 159.15625 284.246094 157.4375 283.261719 155.808594 282.15625 C 153.429688 280.539062 151.320312 278.609375 149.449219 276.425781 C 150.546875 278.003906 151.609375 279.515625 152.921875 280.828125 Z M 113.410156 276.449219 C 111.785156 278.851562 110.550781 281.457031 109.769531 284.46875 C 111.824219 282.789062 113.492188 280.722656 115.257812 278.765625 C 118.285156 275.414062 120.878906 271.6875 123.996094 268.40625 C 124.421875 267.957031 124.753906 267.417969 125.179688 266.96875 C 125.589844 266.539062 125.925781 265.898438 126.917969 266.253906 C 126.703125 267.066406 126.296875 267.648438 125.792969 268.179688 C 123.417969 270.679688 121.363281 273.453125 119.164062 276.097656 C 116.722656 279.027344 114.214844 281.902344 111.390625 284.472656 C 126.441406 275.960938 130.941406 264.449219 131.082031 257.6875 C 130.472656 257.816406 130.164062 258.335938 129.765625 258.71875 C 126.132812 262.226562 122.679688 265.910156 119.171875 269.546875 C 117.082031 271.714844 115.09375 273.960938 113.410156 276.449219 Z M 81.679688 303.722656 C 81.734375 303.6875 81.789062 303.648438 81.84375 303.613281 C 81.753906 303.570312 81.644531 303.476562 81.679688 303.722656 Z M 80.628906 303.757812 C 80.636719 303.617188 80.566406 303.726562 80.570312 303.808594 C 80.574219 303.765625 80.59375 303.75 80.628906 303.757812 Z M 82.332031 296.9375 L 82.222656 296.972656 L 82.261719 297.035156 Z M 81.5 296.058594 C 84.46875 290.960938 86.484375 285.472656 87.90625 279.742188 C 88.6875 276.605469 89.601562 273.515625 90.941406 270.566406 C 91.230469 269.933594 91.359375 269.121094 92.179688 268.867188 C 92.761719 269.160156 92.5 269.59375 92.351562 269.898438 C 90.320312 274.058594 89.386719 278.566406 88.160156 282.980469 C 86.917969 287.46875 85.097656 291.71875 82.796875 296.007812 C 83.75 295.585938 83.890625 294.734375 84.398438 294.210938 C 84.902344 293.691406 85.226562 293.003906 85.636719 292.390625 C 89.21875 287.027344 91.589844 281.082031 93.882812 275.105469 C 96.683594 267.808594 100.601562 261.148438 105.203125 254.867188 C 105.464844 254.511719 105.742188 253.972656 106.261719 254.328125 C 106.867188 254.742188 106.414062 255.273438 106.152344 255.652344 C 104.445312 258.121094 102.839844 260.652344 101.300781 263.222656 C 99.140625 266.824219 97.304688 270.597656 95.742188 274.488281 C 93.15625 280.933594 90.648438 287.410156 86.777344 293.25 C 92.167969 288.921875 96.476562 283.796875 99.136719 277.355469 C 100.839844 273.230469 102.171875 268.949219 104.199219 264.957031 C 104.457031 264.449219 104.402344 263.269531 105.335938 263.699219 C 106.023438 264.015625 105.335938 264.820312 105.105469 265.332031 C 103.777344 268.269531 102.605469 271.269531 101.566406 274.3125 C 98.996094 281.84375 94.664062 288.136719 88.566406 293.234375 C 88.242188 293.503906 87.929688 293.78125 87.617188 294.0625 C 88.328125 293.503906 89.039062 292.949219 89.746094 292.382812 C 93.605469 289.28125 97.257812 285.96875 100.316406 282.046875 C 103.890625 277.464844 106.289062 272.28125 108.113281 266.8125 C 109.714844 262.015625 111.214844 257.1875 112.84375 252.40625 C 113.648438 250.050781 114.644531 247.761719 115.699219 245.074219 C 113.046875 246.195312 110.921875 247.496094 108.761719 248.722656 C 102.246094 252.414062 96.734375 257.167969 92.625 263.523438 C 87.980469 270.699219 85.214844 278.5625 83.566406 286.882812 C 82.957031 289.957031 82.347656 293.035156 81.5 296.058594 Z M 98.664062 298.234375 C 94.015625 298.816406 89.570312 300.042969 85.242188 301.632812 C 90.292969 300.769531 95.402344 300.621094 100.570312 301.101562 C 102.949219 301.320312 105.328125 301.441406 107.714844 301.390625 C 107.941406 301.386719 108.167969 301.347656 108.394531 301.359375 C 108.800781 301.378906 109.246094 301.421875 109.234375 301.96875 C 109.226562 302.433594 108.804688 302.441406 108.480469 302.460938 C 107.460938 302.523438 106.4375 302.621094 105.421875 302.585938 C 103.433594 302.515625 101.449219 302.390625 99.46875 302.238281 C 94.292969 301.839844 89.148438 302.042969 84.046875 303.042969 C 83.71875 303.109375 83.359375 303.078125 83.109375 303.371094 C 82.6875 303.246094 82.320312 303.359375 81.972656 303.589844 C 82.367188 303.878906 82.742188 303.738281 83.109375 303.5 C 85.546875 303.59375 87.980469 303.382812 90.417969 303.511719 C 93.316406 303.660156 96.191406 304.023438 99.074219 304.316406 C 105.058594 304.917969 110.992188 304.371094 116.921875 303.621094 C 117.585938 303.535156 118.242188 303.371094 118.882812 303.703125 C 118.792969 304.535156 118.234375 304.617188 117.664062 304.722656 C 110.808594 305.953125 103.929688 306.492188 96.976562 305.578125 C 92.410156 304.976562 87.816406 304.625 83.203125 305.015625 C 82.796875 305.050781 82.242188 304.84375 82.101562 305.507812 C 82.070312 305.492188 82.070312 305.484375 82.054688 305.472656 C 82.050781 305.484375 82.046875 305.492188 82.042969 305.5 C 84.558594 305.898438 87.070312 306.355469 89.597656 306.679688 C 93.601562 307.195312 97.652344 307.195312 101.648438 307.808594 C 102.304688 307.90625 102.992188 307.894531 103.53125 308.351562 C 103.339844 309.234375 102.703125 309.054688 102.164062 308.996094 C 94.441406 308.144531 86.617188 308.027344 79.085938 305.824219 C 78.667969 305.699219 78.273438 305.730469 77.875 305.804688 C 79.785156 306.207031 81.636719 306.644531 83.4375 307.265625 C 86.015625 308.152344 88.597656 309.03125 91.238281 309.707031 C 100.132812 311.984375 108.785156 311.582031 117.144531 307.488281 C 121.734375 305.238281 126.148438 302.675781 130.582031 300.152344 C 130.828125 300.015625 131.054688 299.847656 131.097656 299.511719 C 130.59375 299.144531 130.007812 299.300781 129.460938 299.316406 C 123.199219 299.472656 116.964844 299.148438 110.742188 298.457031 C 106.726562 298.007812 102.699219 297.726562 98.664062 298.234375 Z M 191.25 238.882812 L 191.265625 238.988281 L 191.347656 238.929688 Z M 191.515625 240.320312 C 191.597656 240.492188 191.765625 240.539062 191.941406 240.574219 C 191.90625 240.3125 191.734375 240.277344 191.515625 240.320312 Z M 190.855469 240.617188 C 191.109375 240.671875 191.253906 240.511719 191.398438 240.347656 C 191.1875 240.375 191.007812 240.472656 190.855469 240.617188 Z M 190.644531 240.585938 C 190.613281 240.570312 190.574219 240.589844 190.535156 240.59375 C 190.582031 240.597656 190.625 240.597656 190.667969 240.601562 C 190.660156 240.597656 190.652344 240.589844 190.644531 240.585938 Z M 213.3125 231.558594 C 205.777344 232.40625 198.601562 234.351562 191.78125 237.429688 C 192.316406 237.203125 192.847656 236.964844 193.390625 236.75 C 197.996094 234.902344 202.871094 234.582031 207.753906 234.382812 C 210.144531 234.285156 212.492188 233.929688 214.832031 233.46875 C 215.367188 233.363281 215.914062 233.074219 216.488281 233.589844 C 216.414062 234.410156 215.703125 234.402344 215.152344 234.5625 C 212.351562 235.375 209.460938 235.589844 206.570312 235.695312 C 201.726562 235.871094 196.964844 236.421875 192.46875 238.386719 C 192.265625 238.476562 192.027344 238.476562 191.953125 238.894531 C 195.320312 238.199219 198.683594 237.726562 202.070312 237.664062 C 209.757812 237.527344 217.140625 235.949219 224.328125 233.296875 C 224.695312 233.160156 225.089844 233.09375 225.476562 233.019531 C 225.5625 233.003906 225.667969 233.101562 225.804688 233.164062 C 225.964844 233.941406 225.289062 234.117188 224.828125 234.296875 C 218.414062 236.832031 211.816406 238.5625 204.875 238.796875 C 201.070312 238.925781 197.273438 239.191406 193.527344 239.90625 C 192.992188 240.007812 192.242188 239.820312 191.96875 240.574219 C 195.792969 239.964844 199.652344 239.871094 203.511719 239.960938 C 206.140625 240.023438 208.726562 239.832031 211.289062 239.242188 C 211.5625 239.179688 211.839844 239.117188 212.121094 239.074219 C 212.550781 239.007812 212.960938 239.082031 213.023438 239.585938 C 213.082031 240.039062 212.660156 240.082031 212.339844 240.175781 C 209.984375 240.882812 207.589844 241.269531 205.121094 241.21875 C 199.160156 241.105469 193.214844 241.261719 187.359375 242.539062 C 189.261719 242.253906 191.183594 242.082031 193.121094 242.023438 C 198.238281 241.867188 203.355469 241.972656 208.472656 241.699219 C 215.9375 241.300781 222.761719 239.285156 228.519531 234.261719 C 230.367188 232.652344 231.886719 230.773438 233.394531 228.789062 C 233.117188 228.804688 232.832031 228.789062 232.558594 228.84375 C 226.199219 230.152344 219.753906 230.835938 213.3125 231.558594 Z M 192.128906 223.652344 C 192.058594 223.613281 191.992188 223.578125 191.925781 223.542969 C 191.960938 223.625 191.917969 223.839844 192.128906 223.652344 Z M 190.25 221.546875 C 190.804688 215.242188 192.808594 209.308594 195.78125 203.617188 C 196.132812 202.945312 196.140625 202.953125 196.964844 202.832031 C 197.09375 203.449219 196.722656 203.902344 196.488281 204.402344 C 194.601562 208.390625 192.933594 212.460938 192.023438 216.804688 C 191.945312 217.183594 191.773438 217.558594 191.984375 217.949219 C 191.699219 218.273438 191.648438 218.652344 191.683594 219.054688 C 192.03125 218.769531 192.125 218.390625 192.0625 217.957031 C 193.359375 215.265625 194.371094 212.449219 195.878906 209.855469 C 198.324219 205.660156 200.601562 201.375 202.304688 196.8125 C 202.402344 196.550781 202.527344 196.296875 202.632812 196.035156 C 202.757812 195.726562 202.976562 195.585938 203.292969 195.699219 C 203.601562 195.8125 203.707031 196.070312 203.617188 196.382812 C 203.507812 196.765625 203.398438 197.144531 203.261719 197.519531 C 202.09375 200.703125 200.769531 203.820312 199.058594 206.761719 C 195.992188 212.039062 193.199219 217.433594 191.910156 223.472656 C 192.527344 223.199219 192.679688 222.585938 192.921875 222.050781 C 195.148438 217.175781 197.46875 212.347656 200.054688 207.652344 C 200.21875 207.355469 200.386719 207.058594 200.574219 206.78125 C 200.789062 206.460938 201.019531 205.964844 201.464844 206.195312 C 202.0625 206.507812 201.652344 206.921875 201.433594 207.324219 C 198.445312 212.828125 195.777344 218.488281 193.25 224.21875 C 193.226562 224.273438 193.199219 224.328125 193.175781 224.386719 C 195.980469 219.695312 198.882812 215.066406 201.371094 210.191406 C 202.867188 207.257812 204.417969 204.351562 205.285156 201.144531 C 206.351562 197.21875 206.113281 193.304688 205.414062 189.253906 C 205.09375 189.453125 204.910156 189.511719 204.820312 189.636719 C 201.914062 193.550781 198.957031 197.433594 196.136719 201.410156 C 192.761719 206.164062 190.410156 211.335938 190.226562 217.304688 C 190.183594 218.722656 190.195312 220.136719 190.25 221.546875 Z M 225.265625 200.953125 C 226.328125 201.226562 227.371094 201.566406 228.386719 201.996094 C 232.078125 203.554688 235.753906 205.144531 239.566406 206.390625 C 240.027344 206.539062 240.609375 206.613281 240.636719 207.398438 C 240.109375 207.882812 239.535156 207.539062 238.972656 207.390625 C 236.128906 206.621094 233.398438 205.535156 230.695312 204.375 C 230.34375 204.222656 229.921875 203.492188 229.429688 204.242188 C 231.125 205.117188 232.816406 206 234.511719 206.871094 C 234.851562 207.046875 235.375 207.105469 235.117188 207.660156 C 234.886719 208.164062 234.410156 207.910156 234.089844 207.789062 C 231.546875 206.820312 229.148438 205.519531 227.046875 203.828125 C 226.011719 202.996094 224.9375 202.378906 223.785156 201.964844 C 225.28125 203.179688 226.714844 204.4375 228.160156 205.667969 C 230.078125 207.304688 232.234375 208.5625 234.773438 209.011719 C 239.285156 209.800781 243.6875 209.082031 248.101562 207.984375 C 240.863281 204.179688 233.585938 200.605469 225.265625 200.953125 Z M 229.425781 204.238281 C 229.246094 204.03125 229.273438 203.628906 228.699219 203.613281 C 229.003906 203.875 229.210938 204.054688 229.417969 204.234375 C 229.421875 204.234375 229.425781 204.238281 229.425781 204.238281 Z M 248.085938 186.839844 C 252.570312 186.5625 257.074219 186.519531 261.539062 185.886719 C 261.890625 185.839844 262.417969 185.726562 262.492188 186.292969 C 262.566406 186.871094 262.039062 186.859375 261.671875 186.925781 C 258.761719 187.445312 255.816406 187.714844 252.867188 187.722656 C 245.375 187.75 238.238281 189.164062 231.640625 192.847656 C 230.960938 193.230469 230.277344 193.597656 229.519531 194.011719 C 230.203125 194.265625 230.605469 193.867188 231.066406 193.6875 C 238.214844 190.890625 245.625 189.414062 253.308594 189.4375 C 258.988281 189.449219 264.507812 188.75 269.625 186.054688 C 269.921875 185.898438 270.25 185.773438 270.578125 185.710938 C 270.785156 185.671875 271.027344 185.746094 271.125 186.007812 C 271.21875 186.253906 271.144531 186.449219 270.949219 186.605469 C 270.816406 186.710938 270.679688 186.8125 270.53125 186.886719 C 266.296875 189.042969 261.890625 190.507812 257.066406 190.550781 C 249.789062 190.613281 242.554688 191.078125 235.574219 193.390625 C 235.636719 193.597656 235.753906 193.726562 236.007812 193.722656 C 240.949219 193.625 245.882812 194.421875 250.832031 193.925781 C 251.792969 193.828125 252.75 193.71875 253.710938 193.628906 C 254.132812 193.589844 254.550781 193.628906 254.554688 194.191406 C 254.558594 194.664062 254.148438 194.679688 253.828125 194.730469 C 250.285156 195.296875 246.726562 195.714844 243.140625 195.273438 C 237.519531 194.578125 232.050781 194.914062 226.855469 197.417969 C 227.25 197.390625 227.640625 197.363281 228.03125 197.351562 C 233.039062 197.164062 238.023438 197.621094 243.007812 198.027344 C 246.539062 198.3125 250.050781 198.335938 253.507812 197.449219 C 264.21875 194.707031 272.792969 188.640625 280.117188 180.363281 C 279.410156 180.003906 278.941406 180.328125 278.480469 180.46875 C 269.28125 183.289062 259.910156 185.289062 250.367188 186.503906 C 249.601562 186.601562 248.84375 186.71875 248.085938 186.839844 Z M 234.800781 193.707031 C 234.855469 193.625 234.765625 193.667969 234.800781 193.707031 Z M 234.890625 193.734375 C 235.273438 193.921875 235.433594 193.726562 235.519531 193.410156 C 235.3125 193.519531 235.101562 193.628906 234.890625 193.734375 Z M 295.441406 138.550781 C 296.867188 140.085938 299.839844 140.082031 301.46875 138.542969 C 303.078125 137.027344 303.175781 134.253906 301.675781 132.710938 C 300.167969 131.15625 297.300781 131.097656 295.640625 132.589844 C 293.945312 134.109375 293.855469 136.839844 295.441406 138.550781 Z M 322.941406 122.675781 C 324.179688 124.050781 326.480469 124.109375 327.832031 122.796875 C 329.140625 121.527344 329.183594 119.582031 327.9375 118.226562 C 326.589844 116.761719 324.550781 116.695312 323.109375 118.066406 C 321.828125 119.285156 321.753906 121.355469 322.941406 122.675781 Z M 330.144531 96.039062 C 331.464844 97.417969 333.429688 97.472656 334.835938 96.171875 C 336.234375 94.882812 336.355469 92.855469 335.113281 91.476562 C 333.839844 90.058594 331.617188 89.9375 330.277344 91.21875 C 328.820312 92.609375 328.765625 94.59375 330.144531 96.039062 Z M 317.402344 95.296875 C 318.488281 96.523438 320.257812 96.632812 321.496094 95.550781 C 322.722656 94.476562 322.90625 92.617188 321.902344 91.429688 C 320.894531 90.246094 318.921875 90.226562 317.640625 91.386719 C 316.445312 92.46875 316.347656 94.105469 317.402344 95.296875 Z M 290.085938 108.027344 C 291.542969 109.476562 294.15625 109.472656 295.628906 108.015625 C 297.082031 106.582031 297.136719 104.148438 295.75 102.636719 C 294.285156 101.039062 291.882812 100.96875 290.296875 102.484375 C 288.839844 103.875 288.734375 106.683594 290.085938 108.027344 Z M 261.703125 127.703125 C 261.609375 126.347656 261.410156 124.992188 261.097656 123.632812 C 259.988281 118.78125 258.644531 113.960938 258.246094 108.96875 C 257.96875 105.496094 258.148438 102.046875 258.957031 98.648438 C 259.078125 98.140625 258.953125 97.300781 260 97.320312 C 260.316406 98.046875 259.976562 98.742188 259.863281 99.433594 C 259.089844 104.136719 259.214844 108.820312 260.179688 113.480469 C 260.789062 116.417969 261.449219 119.347656 262.101562 122.277344 C 262.1875 122.679688 262.144531 123.167969 262.621094 123.386719 C 262.546875 118.230469 262 113.097656 261.804688 107.949219 C 261.570312 101.714844 262.316406 95.59375 264.171875 89.621094 C 264.492188 88.59375 264.757812 87.550781 265.078125 86.523438 C 265.238281 86.003906 265.328125 85.382812 266.140625 85.40625 C 266.582031 86.15625 266.136719 86.851562 265.957031 87.515625 C 264.925781 91.355469 263.914062 95.1875 263.425781 99.144531 C 262.914062 103.285156 262.996094 107.421875 263.261719 111.566406 C 263.457031 114.628906 263.589844 117.691406 263.769531 120.753906 C 263.796875 121.191406 263.660156 121.671875 264.011719 122.054688 C 263.816406 122.320312 263.964844 122.4375 264.175781 122.527344 C 264.128906 122.371094 264.082031 122.210938 264.035156 122.054688 C 264.785156 120.3125 264.914062 118.441406 265.03125 116.597656 C 265.277344 112.628906 265.429688 108.65625 265.25 104.675781 C 265.226562 104.105469 264.792969 103.042969 265.71875 102.984375 C 266.546875 102.933594 266.234375 103.984375 266.265625 104.523438 C 266.765625 112.859375 266.613281 121.121094 263.476562 129.046875 C 266.277344 123.863281 268.117188 118.460938 268.089844 112.351562 C 268.035156 100.164062 269.101562 88.03125 270.988281 75.980469 C 271.109375 75.207031 271.195312 74.429688 271.332031 73.398438 C 270.054688 73.917969 269.703125 74.90625 269.109375 75.632812 C 266.277344 79.105469 263.457031 82.59375 261.109375 86.425781 C 256.554688 93.855469 254.679688 101.78125 256.566406 110.425781 C 257.222656 113.429688 258.101562 116.367188 259.039062 119.289062 C 259.933594 122.089844 261 124.84375 261.703125 127.703125 Z M 262.441406 124.054688 C 262.367188 123.996094 262.394531 124.078125 262.441406 124.054688 Z M 262.589844 123.554688 C 262.542969 123.628906 262.519531 123.714844 262.53125 123.804688 C 262.550781 123.71875 262.570312 123.636719 262.589844 123.554688 Z M 264.167969 122.5625 C 264.058594 122.585938 263.886719 122.542969 264 122.777344 C 264.054688 122.707031 264.113281 122.636719 264.167969 122.5625 Z M 246.332031 166.175781 C 246.046875 166.035156 245.878906 166.117188 245.828125 166.519531 C 246.019531 166.386719 246.175781 166.28125 246.332031 166.175781 Z M 230.207031 161.578125 C 232.183594 163.214844 234.523438 164.3125 236.445312 166.046875 C 235.683594 165.03125 234.699219 164.171875 233.648438 163.363281 C 230.980469 161.304688 228.605469 158.980469 226.992188 155.96875 C 226.789062 155.589844 226.296875 155.214844 226.863281 154.839844 C 227.320312 154.539062 227.613281 155.027344 227.800781 155.332031 C 229.769531 158.597656 232.628906 161.011719 235.773438 163.621094 C 235.132812 161.859375 234.085938 160.761719 232.992188 159.699219 C 230.960938 157.71875 228.808594 155.828125 227.441406 153.296875 C 227.171875 152.796875 226.246094 152.15625 227.28125 151.359375 C 228.46875 152.222656 228.9375 153.628906 229.824219 154.707031 C 230.367188 155.367188 230.855469 156.058594 231.53125 156.589844 C 233.582031 158.1875 235.289062 160.019531 236.519531 162.164062 C 235.824219 159.496094 234.632812 157.035156 232.691406 154.917969 C 229.964844 151.941406 227.144531 149.050781 224.359375 146.125 C 224.214844 145.976562 224.050781 145.769531 223.691406 145.984375 C 223.328125 147.085938 223.503906 148.28125 223.675781 149.4375 C 224.390625 154.257812 226.367188 158.390625 230.207031 161.578125 Z M 242.214844 167.542969 C 242.117188 167.675781 242.015625 167.804688 241.917969 167.933594 C 242.292969 167.609375 242.671875 167.285156 243.042969 166.960938 C 247.144531 163.386719 251.519531 160.179688 256.390625 157.703125 C 261.164062 155.273438 266.308594 153.941406 271.429688 152.527344 C 271.535156 152.496094 271.644531 152.453125 271.753906 152.4375 C 272.105469 152.390625 272.484375 152.378906 272.5625 152.824219 C 272.644531 153.289062 272.214844 153.347656 271.914062 153.445312 C 269.871094 154.082031 267.820312 154.707031 265.773438 155.335938 C 262.367188 156.386719 259.015625 157.574219 255.886719 159.316406 C 255.492188 159.539062 255.140625 159.789062 254.816406 160.089844 C 254.957031 160.316406 255.140625 160.222656 255.34375 160.15625 C 259.074219 158.964844 262.90625 158.179688 266.710938 157.292969 C 270.902344 156.316406 274.988281 154.960938 279.101562 153.71875 C 279.671875 153.550781 280.226562 153.121094 280.902344 153.609375 C 280.839844 154.613281 279.929688 154.585938 279.332031 154.8125 C 273.914062 156.851562 268.316406 158.257812 262.675781 159.507812 C 258.085938 160.527344 253.539062 161.679688 249.417969 164.066406 C 248.390625 164.660156 247.285156 165.140625 246.511719 166.085938 C 253.886719 162.925781 261.78125 161.523438 269.445312 159.347656 C 270.046875 159.175781 270.707031 158.703125 271.332031 159.351562 C 271.183594 160.183594 270.4375 160.183594 269.890625 160.355469 C 266.59375 161.398438 263.242188 162.238281 259.890625 163.078125 C 256.707031 163.878906 253.5625 164.777344 250.5 165.921875 C 251.089844 165.816406 251.683594 165.730469 252.289062 165.675781 C 255.175781 165.425781 258.0625 165.15625 260.949219 164.917969 C 265.988281 164.507812 270.800781 163.382812 275.277344 160.914062 C 281.382812 157.550781 286.605469 152.992188 292.054688 148.730469 C 292.257812 148.570312 292.511719 148.390625 292.441406 147.976562 C 292.089844 147.816406 291.699219 147.90625 291.320312 147.96875 C 285.214844 149.015625 279.097656 150 273.011719 151.128906 C 268.148438 152.03125 263.355469 153.25 258.769531 155.160156 C 252.210938 157.886719 246.5 161.761719 242.214844 167.542969 Z M 254.753906 160.105469 C 254.476562 160.0625 254.261719 160.125 254.175781 160.546875 C 254.453125 160.445312 254.632812 160.3125 254.753906 160.105469 Z M 291.460938 89.003906 C 291.472656 88.652344 291.246094 88.320312 290.832031 88.03125 C 290.484375 87.785156 290.460938 87.554688 290.410156 87.214844 C 289.515625 81.101562 290.894531 75.390625 293.445312 69.886719 C 295.234375 66.03125 296.746094 62.070312 297.972656 58 C 298.074219 57.675781 298.210938 57.359375 298.304688 57.035156 C 298.398438 56.699219 298.625 56.5625 298.9375 56.636719 C 299.265625 56.714844 299.367188 56.976562 299.28125 57.296875 C 299.003906 58.335938 298.730469 59.375 298.441406 60.410156 C 297.316406 64.457031 295.503906 68.242188 293.914062 72.109375 C 293.007812 74.316406 292.238281 76.566406 291.769531 78.902344 C 291.65625 79.464844 291.238281 80.171875 291.921875 80.699219 C 293.605469 75.292969 297.285156 68.082031 298.605469 67.636719 C 298.867188 68.183594 298.496094 68.570312 298.289062 69.019531 C 296.347656 73.28125 294.191406 77.460938 292.851562 81.976562 C 292.578125 82.898438 292.378906 83.839844 292.097656 84.761719 C 291.882812 85.464844 291.871094 86.140625 291.988281 86.824219 C 292.394531 84.476562 293.511719 82.476562 294.613281 80.472656 C 296.773438 76.535156 298.664062 72.480469 300.214844 68.253906 C 302.46875 62.109375 302.214844 55.996094 300.242188 49.863281 C 300.148438 49.566406 300.117188 49.183594 299.65625 49.054688 C 299.296875 49.253906 299.238281 49.671875 299.113281 50.019531 C 296.664062 56.871094 293.886719 63.585938 291.121094 70.3125 C 289.894531 73.304688 288.628906 76.292969 288.085938 79.515625 C 287.683594 81.894531 287.972656 84.183594 289.175781 86.277344 C 289.71875 87.222656 290.183594 88.308594 291.460938 89.003906 Z M 291.898438 80.75 C 291.515625 80.789062 291.480469 81.109375 291.386719 81.386719 C 291.609375 81.214844 291.804688 81.019531 291.898438 80.75 Z M 299.742188 82.96875 C 300.484375 82.6875 301.238281 82.433594 302 82.207031 C 304.5 81.46875 307.03125 80.847656 309.417969 79.757812 C 311.226562 78.933594 312.933594 77.945312 314.503906 76.726562 C 314.816406 76.484375 315.164062 76.289062 315.511719 76.097656 C 315.839844 75.921875 316.226562 75.503906 316.566406 75.914062 C 316.96875 76.40625 316.445312 76.714844 316.148438 77.03125 C 316.03125 77.15625 315.898438 77.265625 315.910156 77.253906 C 312.75 79.847656 309.378906 81.621094 305.582031 82.605469 C 303.671875 83.101562 301.730469 83.511719 299.882812 84.207031 C 309.621094 85.199219 315.867188 81.914062 321.296875 72.894531 C 313.308594 75.046875 305.664062 77.171875 299.742188 82.96875 Z M 362.761719 14.160156 C 362.324219 14.117188 362.007812 14.460938 361.65625 14.738281 C 358.460938 17.277344 355.179688 19.71875 352.082031 22.371094 C 347.621094 26.195312 342.777344 29.417969 337.613281 32.183594 C 333.382812 34.453125 329.902344 37.511719 327.375 41.640625 C 323.535156 47.90625 320.046875 54.351562 316.847656 60.957031 C 317.199219 60.617188 317.566406 60.289062 317.921875 59.949219 C 318.359375 59.21875 318.808594 58.492188 319.277344 57.78125 C 322.390625 53.0625 325.765625 48.523438 329.390625 44.1875 C 331.097656 42.148438 332.859375 40.132812 334.9375 38.4375 C 335.25 38.1875 335.558594 37.589844 336.03125 38.171875 C 336.390625 38.613281 335.917969 38.882812 335.65625 39.144531 C 330.519531 44.316406 326.230469 50.15625 322.03125 56.070312 C 322.328125 55.796875 322.609375 55.515625 322.90625 55.242188 C 325.386719 52.984375 328.070312 50.996094 330.683594 48.914062 C 333.351562 46.789062 335.835938 44.429688 338.128906 41.894531 C 339.957031 39.871094 341.949219 38.007812 343.761719 35.964844 C 346.328125 33.082031 348.855469 30.171875 351.296875 27.183594 C 353.523438 24.457031 355.71875 21.699219 358.410156 19.394531 C 358.625 19.210938 358.828125 19.011719 359.058594 18.847656 C 359.308594 18.664062 359.585938 18.621094 359.816406 18.878906 C 359.984375 19.066406 359.960938 19.320312 359.84375 19.511719 C 359.699219 19.75 359.507812 19.972656 359.300781 20.160156 C 355.539062 23.503906 352.765625 27.6875 349.558594 31.507812 C 346.753906 34.855469 343.925781 38.1875 340.8125 41.273438 C 338.671875 43.394531 336.699219 45.679688 334.320312 47.554688 C 329.902344 51.097656 325.625 54.800781 321.539062 58.707031 C 323.761719 57.191406 325.957031 55.695312 328.152344 54.210938 C 332.382812 51.355469 336.480469 48.332031 340.167969 44.78125 C 340.5625 44.40625 341.015625 43.460938 341.621094 44.054688 C 342.28125 44.703125 341.265625 45.09375 340.898438 45.46875 C 335.949219 50.515625 330.230469 54.585938 324.320312 58.40625 C 323.667969 58.828125 323.015625 59.246094 322.367188 59.667969 C 322.582031 59.546875 322.796875 59.414062 323.015625 59.296875 C 329.433594 55.792969 336.042969 52.636719 342.074219 48.445312 C 346.261719 45.539062 349.984375 42.175781 352.839844 37.925781 C 357.644531 30.773438 360.632812 22.828125 363.003906 14.613281 C 363.054688 14.433594 363.019531 14.285156 362.761719 14.160156 Z M 362.761719 14.160156 " fill-opacity="1" fill-rule="nonzero"/></g></g></g></svg>