<svg xmlns="http://www.w3.org/2000/svg" xmlns:xlink="http://www.w3.org/1999/xlink" width="500" zoomAndPan="magnify" viewBox="0 0 375 374.999991" height="500" preserveAspectRatio="xMidYMid meet" version="1.0"><defs><clipPath id="751051e9c4"><path d="M 201 13 L 355 13 L 355 170 L 201 170 Z M 201 13 " clip-rule="nonzero"/></clipPath><clipPath id="40c0452ada"><path d="M 7.414062 20.269531 L 352.167969 7.242188 L 365.28125 354.246094 L 20.527344 367.269531 Z M 7.414062 20.269531 " clip-rule="nonzero"/></clipPath><clipPath id="4ad999a5fc"><path d="M 7.414062 20.269531 L 352.167969 7.242188 L 365.28125 354.246094 L 20.527344 367.269531 Z M 7.414062 20.269531 " clip-rule="nonzero"/></clipPath><clipPath id="9dfd55d9a8"><path d="M 22 147 L 227 147 L 227 365 L 22 365 Z M 22 147 " clip-rule="nonzero"/></clipPath><clipPath id="9ac71a52f6"><path d="M 7.414062 20.269531 L 352.167969 7.242188 L 365.28125 354.246094 L 20.527344 367.269531 Z M 7.414062 20.269531 " clip-rule="nonzero"/></clipPath><clipPath id="df817c1cf4"><path d="M 7.414062 20.269531 L 352.167969 7.242188 L 365.28125 354.246094 L 20.527344 367.269531 Z M 7.414062 20.269531 " clip-rule="nonzero"/></clipPath><clipPath id="e32162362a"><path d="M 201 9 L 354 9 L 354 166 L 201 166 Z M 201 9 " clip-rule="nonzero"/></clipPath><clipPath id="596d7ab536"><path d="M 7.414062 20.269531 L 352.167969 7.242188 L 365.28125 354.246094 L 20.527344 367.269531 Z M 7.414062 20.269531 " clip-rule="nonzero"/></clipPath><clipPath id="dee6fc8db3"><path d="M 7.414062 20.269531 L 352.167969 7.242188 L 365.28125 354.246094 L 20.527344 367.269531 Z M 7.414062 20.269531 " clip-rule="nonzero"/></clipPath><clipPath id="4c27434660"><path d="M 252 44 L 335 44 L 335 123 L 252 123 Z M 252 44 " clip-rule="nonzero"/></clipPath><clipPath id="13aa606151"><path d="M 7.414062 20.269531 L 352.167969 7.242188 L 365.28125 354.246094 L 20.527344 367.269531 Z M 7.414062 20.269531 " clip-rule="nonzero"/></clipPath><clipPath id="c330462641"><path d="M 7.414062 20.269531 L 352.167969 7.242188 L 365.28125 354.246094 L 20.527344 367.269531 Z M 7.414062 20.269531 " clip-rule="nonzero"/></clipPath><clipPath id="12b542bd45"><path d="M 234 27 L 317 27 L 317 106 L 234 106 Z M 234 27 " clip-rule="nonzero"/></clipPath><clipPath id="bb62beae4d"><path d="M 7.414062 20.269531 L 352.167969 7.242188 L 365.28125 354.246094 L 20.527344 367.269531 Z M 7.414062 20.269531 " clip-rule="nonzero"/></clipPath><clipPath id="b3e99e251c"><path d="M 7.414062 20.269531 L 352.167969 7.242188 L 365.28125 354.246094 L 20.527344 367.269531 Z M 7.414062 20.269531 " clip-rule="nonzero"/></clipPath><clipPath id="e5e73ea172"><path d="M 270 61 L 354 61 L 354 140 L 270 140 Z M 270 61 " clip-rule="nonzero"/></clipPath><clipPath id="934e68509e"><path d="M 7.414062 20.269531 L 352.167969 7.242188 L 365.28125 354.246094 L 20.527344 367.269531 Z M 7.414062 20.269531 " clip-rule="nonzero"/></clipPath><clipPath id="b593d792a5"><path d="M 7.414062 20.269531 L 352.167969 7.242188 L 365.28125 354.246094 L 20.527344 367.269531 Z M 7.414062 20.269531 " clip-rule="nonzero"/></clipPath><clipPath id="2ee0f280e6"><path d="M 202 10 L 299 10 L 299 146 L 202 146 Z M 202 10 " clip-rule="nonzero"/></clipPath><clipPath id="f01577f59a"><path d="M 7.414062 20.269531 L 352.167969 7.242188 L 365.28125 354.246094 L 20.527344 367.269531 Z M 7.414062 20.269531 " clip-rule="nonzero"/></clipPath><clipPath id="939f3a295b"><path d="M 7.414062 20.269531 L 352.167969 7.242188 L 365.28125 354.246094 L 20.527344 367.269531 Z M 7.414062 20.269531 " clip-rule="nonzero"/></clipPath><clipPath id="98f4c077c1"><path d="M 22 143 L 226 143 L 226 361 L 22 361 Z M 22 143 " clip-rule="nonzero"/></clipPath><clipPath id="95c7cfeaa0"><path d="M 7.414062 20.269531 L 352.167969 7.242188 L 365.28125 354.246094 L 20.527344 367.269531 Z M 7.414062 20.269531 " clip-rule="nonzero"/></clipPath><clipPath id="9c35d665ef"><path d="M 7.414062 20.269531 L 352.167969 7.242188 L 365.28125 354.246094 L 20.527344 367.269531 Z M 7.414062 20.269531 " clip-rule="nonzero"/></clipPath><clipPath id="6cbd5bc840"><path d="M 27 145 L 218 145 L 218 355 L 27 355 Z M 27 145 " clip-rule="nonzero"/></clipPath><clipPath id="3a939f7ac6"><path d="M 7.414062 20.269531 L 352.167969 7.242188 L 365.28125 354.246094 L 20.527344 367.269531 Z M 7.414062 20.269531 " clip-rule="nonzero"/></clipPath><clipPath id="d94b5ff89a"><path d="M 7.414062 20.269531 L 352.167969 7.242188 L 365.28125 354.246094 L 20.527344 367.269531 Z M 7.414062 20.269531 " clip-rule="nonzero"/></clipPath><clipPath id="b2c18bd348"><path d="M 87 39 L 88 39 L 88 40 L 87 40 Z M 87 39 " clip-rule="nonzero"/></clipPath><clipPath id="273ad290c4"><path d="M -43.578125 87.46875 L 51.996094 -17.210938 L 402.601562 302.886719 L 307.027344 407.566406 Z M -43.578125 87.46875 " clip-rule="nonzero"/></clipPath><clipPath id="0cbdb3a334"><path d="M 51.988281 -17.203125 L -43.585938 87.480469 L 307.019531 407.578125 L 402.59375 302.894531 Z M 51.988281 -17.203125 " clip-rule="nonzero"/></clipPath><clipPath id="2a7e2d0d3c"><path d="M 28 0 L 345 0 L 345 366 L 28 366 Z M 28 0 " clip-rule="nonzero"/></clipPath><clipPath id="d54c65f795"><path d="M -43.578125 87.46875 L 51.996094 -17.210938 L 402.601562 302.886719 L 307.027344 407.566406 Z M -43.578125 87.46875 " clip-rule="nonzero"/></clipPath><clipPath id="dfd1ab6782"><path d="M 51.988281 -17.203125 L -43.585938 87.480469 L 307.019531 407.578125 L 402.59375 302.894531 Z M 51.988281 -17.203125 " clip-rule="nonzero"/></clipPath><clipPath id="ee799bb9fa"><path d="M 75 66 L 76 66 L 76 67 L 75 67 Z M 75 66 " clip-rule="nonzero"/></clipPath><clipPath id="be46baa891"><path d="M -43.578125 87.46875 L 51.996094 -17.210938 L 402.601562 302.886719 L 307.027344 407.566406 Z M -43.578125 87.46875 " clip-rule="nonzero"/></clipPath><clipPath id="477ea057f4"><path d="M 51.988281 -17.203125 L -43.585938 87.480469 L 307.019531 407.578125 L 402.59375 302.894531 Z M 51.988281 -17.203125 " clip-rule="nonzero"/></clipPath></defs><g clip-path="url(#751051e9c4)"><g clip-path="url(#40c0452ada)"><g clip-path="url(#4ad999a5fc)"><path fill="#2c2926" d="M 299.835938 17.191406 L 231.648438 95.542969 C 229.386719 97.988281 229.527344 101.804688 231.96875 104.070312 C 234.417969 106.339844 238.234375 106.195312 240.5 103.757812 L 313.484375 29.851562 L 317.953125 33.992188 L 249.765625 112.347656 C 247.503906 114.785156 247.648438 118.609375 250.097656 120.882812 C 252.535156 123.136719 256.363281 122.988281 258.628906 120.558594 L 331.609375 46.652344 L 336.082031 50.800781 L 267.886719 129.148438 C 265.628906 131.589844 265.773438 135.410156 268.214844 137.679688 C 270.660156 139.941406 274.484375 139.792969 276.742188 137.359375 L 349.726562 63.453125 L 354.175781 67.582031 L 267.9375 160.59375 C 257.449219 171.914062 239.761719 172.582031 228.441406 162.085938 L 210.628906 145.578125 C 199.316406 135.082031 198.652344 117.394531 209.140625 106.078125 L 295.386719 13.058594 L 299.835938 17.191406 " fill-opacity="1" fill-rule="nonzero"/></g></g></g><g clip-path="url(#9dfd55d9a8)"><g clip-path="url(#9ac71a52f6)"><g clip-path="url(#df817c1cf4)"><path fill="#2c2926" d="M 226.449219 160.242188 L 60.222656 357.550781 C 52.085938 366.332031 38.355469 366.847656 29.582031 358.710938 C 20.792969 350.5625 20.277344 336.84375 28.414062 328.058594 L 212.628906 147.421875 L 226.449219 160.242188 " fill-opacity="1" fill-rule="nonzero"/></g></g></g><g clip-path="url(#e32162362a)"><g clip-path="url(#596d7ab536)"><g clip-path="url(#dee6fc8db3)"><path fill="#433b34" d="M 299.21875 13.535156 L 231.042969 91.878906 C 228.773438 94.332031 228.921875 98.144531 231.367188 100.410156 C 233.8125 102.675781 237.625 102.539062 239.890625 100.09375 L 312.871094 26.195312 L 317.339844 30.34375 L 249.164062 108.6875 C 246.890625 111.125 247.050781 114.949219 249.488281 117.21875 C 251.929688 119.476562 255.742188 119.339844 258.019531 116.894531 L 330.996094 42.996094 L 335.46875 47.140625 L 267.289062 125.496094 C 265.019531 127.933594 265.171875 131.753906 267.609375 134.015625 C 270.058594 136.285156 273.871094 136.144531 276.140625 133.703125 L 349.117188 59.800781 L 353.5625 63.925781 L 267.328125 156.9375 C 256.832031 168.257812 239.148438 168.925781 227.84375 158.429688 L 210.019531 141.914062 C 198.703125 131.425781 198.035156 113.742188 208.527344 102.421875 L 294.765625 9.414062 L 299.21875 13.535156 " fill-opacity="1" fill-rule="nonzero"/></g></g></g><g clip-path="url(#4c27434660)"><g clip-path="url(#13aa606151)"><g clip-path="url(#c330462641)"><path fill="#433b34" d="M 253.3125 120.761719 C 252.878906 120.355469 252.542969 119.90625 252.257812 119.4375 C 254.617188 120.625 257.542969 120.214844 259.414062 118.195312 L 332.410156 44.3125 L 334.859375 46.578125 L 261.867188 120.46875 C 259.59375 122.90625 255.765625 123.039062 253.3125 120.761719 " fill-opacity="1" fill-rule="nonzero"/></g></g></g><g clip-path="url(#12b542bd45)"><g clip-path="url(#bb62beae4d)"><g clip-path="url(#b3e99e251c)"><path fill="#433b34" d="M 235.066406 103.835938 C 234.636719 103.449219 234.304688 102.996094 234.015625 102.523438 C 236.371094 103.710938 239.296875 103.300781 241.175781 101.277344 L 314.167969 27.398438 L 316.617188 29.664062 L 243.625 103.542969 C 241.359375 106 237.527344 106.117188 235.066406 103.835938 " fill-opacity="1" fill-rule="nonzero"/></g></g></g><g clip-path="url(#e5e73ea172)"><g clip-path="url(#934e68509e)"><g clip-path="url(#b593d792a5)"><path fill="#433b34" d="M 271.542969 137.671875 C 271.125 137.28125 270.789062 136.828125 270.5 136.351562 C 272.851562 137.542969 275.789062 137.128906 277.65625 135.105469 L 350.652344 61.230469 L 353.109375 63.5 L 280.113281 137.378906 C 277.84375 139.824219 274.015625 139.953125 271.542969 137.671875 " fill-opacity="1" fill-rule="nonzero"/></g></g></g><g clip-path="url(#2ee0f280e6)"><g clip-path="url(#f01577f59a)"><g clip-path="url(#939f3a295b)"><path fill="#433b34" d="M 298.398438 12.773438 L 212.164062 105.78125 C 201.664062 117.101562 202.390625 134.839844 213.785156 145.40625 L 211.332031 143.132812 C 199.941406 132.5625 199.214844 114.828125 209.707031 103.507812 L 295.945312 10.503906 L 298.398438 12.773438 " fill-opacity="1" fill-rule="nonzero"/></g></g></g><g clip-path="url(#98f4c077c1)"><g clip-path="url(#95c7cfeaa0)"><g clip-path="url(#9c35d665ef)"><path fill="#433b34" d="M 225.84375 156.582031 L 59.609375 353.890625 C 51.472656 362.675781 37.753906 363.191406 28.96875 355.058594 C 20.1875 346.910156 19.667969 333.191406 27.816406 324.40625 L 212.011719 143.757812 L 225.84375 156.582031 " fill-opacity="1" fill-rule="nonzero"/></g></g></g><g clip-path="url(#6cbd5bc840)"><g clip-path="url(#3a939f7ac6)"><g clip-path="url(#d94b5ff89a)"><path fill="#433b34" d="M 213.726562 145.347656 L 217.421875 148.78125 L 37.390625 328.28125 C 30.070312 336.175781 28.847656 347.15625 34.109375 354.058594 C 33.410156 353.609375 32.726562 353.105469 32.09375 352.527344 C 24.949219 345.902344 25.660156 333.511719 33.691406 324.851562 L 213.726562 145.347656 " fill-opacity="1" fill-rule="nonzero"/></g></g></g><g clip-path="url(#b2c18bd348)"><g clip-path="url(#273ad290c4)"><g clip-path="url(#0cbdb3a334)"><path fill="#5f764f" d="M 87.941406 39.726562 C 87.949219 39.734375 87.949219 39.742188 87.953125 39.746094 C 87.949219 39.742188 87.945312 39.738281 87.9375 39.734375 C 87.9375 39.734375 87.941406 39.726562 87.941406 39.726562 Z M 87.941406 39.726562 " fill-opacity="1" fill-rule="nonzero"/></g></g></g><g clip-path="url(#2a7e2d0d3c)"><g clip-path="url(#d54c65f795)"><g clip-path="url(#dfd1ab6782)"><path fill="#5f764f" d="M 205.769531 314.074219 C 205.328125 314.042969 204.667969 313.789062 204.660156 313.257812 C 204.6875 312.824219 205.148438 312.953125 205.40625 312.808594 C 205.492188 312.761719 205.652344 312.746094 205.675781 312.683594 C 205.945312 311.902344 206.800781 311.914062 207.300781 311.457031 C 207.933594 311.675781 208.523438 311.683594 208.984375 311.085938 C 210.0625 310.957031 211.214844 311.070312 212.3125 310.839844 C 217.023438 311 221.898438 311.058594 226.714844 311.242188 C 226.394531 310.632812 225.84375 310.914062 225.441406 310.78125 C 223.203125 309.546875 220.941406 309.847656 218.675781 308.902344 C 217.53125 308.183594 216.199219 308.683594 215.222656 307.792969 C 214.28125 307.644531 213.246094 307.878906 212.453125 307.101562 C 211.601562 307.453125 210.851562 306.875 210.191406 306.609375 C 208.125 306.148438 206.3125 305.398438 204.226562 304.78125 C 203.792969 304.683594 203.378906 304.550781 203.039062 304.203125 C 202.746094 303.90625 202.140625 304.097656 202.027344 303.386719 C 201.980469 303.089844 201.253906 303.757812 200.878906 303.296875 C 200.707031 303.148438 200.414062 303.0625 200.707031 302.753906 C 200.339844 302.15625 199.9375 303.179688 199.566406 302.695312 C 198.589844 301.160156 196.867188 304.472656 198.097656 299.800781 C 198.875 299.152344 200.023438 300.046875 200.976562 299.804688 C 201.421875 299.695312 201.796875 299.132812 202.347656 299.472656 C 202.386719 299.464844 202.4375 299.464844 202.488281 299.46875 C 203.039062 299.140625 203.597656 299.585938 204.15625 299.453125 C 204.378906 299.476562 204.652344 299.363281 204.765625 299.675781 C 204.816406 299.675781 204.875 299.675781 204.921875 299.671875 C 205.160156 299.464844 205.363281 299.476562 205.53125 299.757812 C 206.058594 299.785156 206.582031 299.6875 207.058594 300.023438 C 208.28125 300.042969 209.496094 300.558594 210.65625 300.640625 C 211.035156 300.722656 211.476562 300.710938 211.742188 301.046875 C 212.1875 301.550781 212.832031 301.152344 213.324219 301.441406 C 213.695312 301.214844 213.917969 301.574219 214.21875 301.722656 C 214.449219 301.789062 214.785156 301.445312 214.921875 301.902344 C 216.167969 302.605469 217.621094 302.539062 218.941406 302.976562 C 219.117188 302.804688 219.933594 303.421875 219.515625 302.515625 L 219.449219 302.511719 C 219.269531 302.617188 219.109375 302.644531 219 302.417969 C 218.628906 302.1875 218.316406 301.910156 218.132812 301.507812 C 217.960938 301.523438 217.792969 301.53125 217.621094 301.546875 C 211.957031 298.226562 206.039062 295.359375 200.738281 291.621094 C 200.308594 291.800781 200.050781 291.519531 199.8125 291.195312 C 199.328125 290.875 198.8125 290.578125 198.65625 289.945312 C 198.601562 289.898438 192.308594 286.382812 192.0625 285.699219 C 192 285.523438 191.59375 285.453125 191.910156 285.164062 C 192.191406 284.660156 203.875 288.308594 206.125 289.558594 C 207.46875 289.78125 208.503906 290.691406 209.707031 291.175781 C 210.160156 291.171875 210.367188 291.480469 210.589844 291.753906 C 210.863281 292.085938 210.910156 292.945312 211.582031 292.082031 C 212.496094 292.472656 213.457031 293.316406 214.445312 293.519531 C 223 297.707031 231.246094 302.808594 239.507812 307.082031 C 240.585938 307.167969 240.800781 308.695312 241.828125 308.574219 C 242.257812 308.515625 242.480469 308.746094 242.613281 308.9375 C 244.597656 310.023438 246.324219 311.667969 248.640625 312.042969 C 249.179688 312.058594 249.839844 312.246094 250.136719 312.679688 C 251.109375 313.566406 252.425781 313.097656 253.507812 313.832031 C 254.449219 314.136719 255.53125 315.289062 256.476562 314.898438 C 256.597656 314.625 256.34375 314.429688 256.136719 314.339844 C 255.230469 314.09375 254.617188 312.875 253.878906 312.484375 C 252.304688 311.953125 251.640625 310.378906 250.136719 309.878906 C 249.738281 309.367188 249.53125 308.789062 248.78125 308.640625 C 248.289062 308.269531 248.308594 307.464844 247.566406 307.328125 C 245.148438 306.894531 244.410156 304.160156 242.289062 303.453125 C 242.117188 303.449219 241.84375 303.253906 241.792969 303.089844 C 241.601562 302.472656 240.96875 302.417969 240.582031 302.074219 C 240.46875 301.96875 240.199219 301.90625 240.199219 301.824219 C 240.195312 300.988281 239.460938 300.933594 238.972656 300.585938 C 237.671875 300.414062 237.738281 298.691406 236.488281 298.425781 C 235.511719 298.484375 235.378906 297.640625 234.863281 297.242188 C 233.996094 296.242188 232.515625 296.300781 231.652344 295.203125 C 228.753906 292.359375 224.570312 291.074219 221.613281 288.3125 C 218 286.070312 213.671875 284.453125 210.4375 281.777344 C 209.152344 281.835938 208.074219 280.550781 206.742188 280.175781 C 205.394531 280.019531 204.824219 278.675781 203.59375 278.242188 C 200.589844 277.378906 197.988281 275.339844 195.140625 273.960938 C 193.667969 272.988281 191.730469 272.851562 190.558594 271.558594 C 187.578125 270.347656 184.421875 270.242188 181.277344 269.664062 C 179.425781 269.75 177.726562 268.46875 175.980469 268.621094 C 174.367188 268.667969 172.976562 267.613281 171.371094 267.976562 C 171.292969 267.992188 171.171875 267.828125 171.070312 267.753906 C 170.804688 267.546875 170.554688 267.402344 170.21875 267.652344 C 169.683594 268.050781 169.097656 267.296875 168.578125 267.332031 C 164.136719 266.632812 159.4375 266.257812 155.296875 264.210938 C 154.992188 264.304688 154.742188 264.25 154.558594 263.980469 C 154.375 263.613281 153.871094 263.671875 153.675781 263.320312 C 152.101562 263.285156 151.390625 261.585938 149.953125 261.0625 C 149.785156 260.988281 149.851562 260.816406 149.960938 260.742188 C 150.414062 260.171875 152.582031 259.390625 152.535156 259.304688 C 152.699219 259.320312 152.867188 259.335938 153.023438 259.351562 C 157.292969 258.726562 162.078125 259.878906 166.378906 260.730469 C 166.109375 259.933594 166.109375 259.925781 165.613281 259.953125 C 163.953125 259.730469 162.722656 258.054688 160.851562 257.890625 C 159.832031 257.09375 158.757812 256.648438 157.648438 256.015625 C 157.152344 255.472656 156.058594 255.875 155.574219 255.070312 C 150.300781 252.289062 144.925781 249.300781 140.378906 245.339844 C 140.128906 245.4375 140.003906 245.277344 139.90625 245.085938 C 139.828125 245.042969 139.753906 244.996094 139.675781 244.953125 C 139.5 244.988281 139.371094 244.917969 139.273438 244.78125 C 137.113281 243.136719 135.605469 240.539062 133.40625 238.785156 C 132.972656 238.558594 132.289062 236.730469 132.273438 235.957031 C 132.621094 236.882812 133.828125 236.871094 134.105469 237.820312 C 134.699219 238.363281 135.605469 238.042969 136.214844 238.492188 C 142.078125 239.675781 147.039062 243.960938 152.464844 246.15625 C 152.785156 247.183594 153.898438 246.660156 154.433594 247.328125 C 154.757812 247.996094 155.433594 248.042969 156.015625 248.210938 C 157.441406 248.757812 158.695312 249.703125 160.113281 250.335938 C 159.9375 250.105469 160.242188 249.496094 159.5625 249.671875 C 159.484375 249.691406 159.289062 249.546875 159.269531 249.449219 C 159.097656 248.6875 158.054688 248.628906 157.957031 247.816406 C 157.949219 247.765625 157.824219 247.683594 157.773438 247.703125 C 156.996094 247.878906 156.640625 247.238281 156.371094 246.792969 C 154.296875 244.566406 151.582031 242.972656 150.136719 240.167969 C 149.890625 240.28125 149.734375 240.09375 149.734375 239.9375 C 149.722656 239.492188 149.363281 239.265625 149.207031 238.929688 C 148.914062 238.300781 148.039062 238.289062 147.886719 237.5625 C 147.625 237.179688 147.050781 237.082031 146.96875 236.546875 C 146.839844 236.550781 146.714844 236.550781 146.757812 236.351562 C 145.933594 235.554688 147.050781 233.734375 147.847656 235.050781 C 148.132812 235.285156 148.152344 235.90625 148.476562 235.886719 C 149.246094 235.839844 149.625 236.441406 150.207031 236.699219 C 156.21875 238.914062 160.636719 243.652344 165.335938 247.734375 C 167.257812 249.238281 169.210938 251.398438 171.558594 252.339844 C 171.75 252.351562 171.921875 252.527344 171.925781 252.71875 C 171.929688 253.511719 172.597656 253.667969 173.085938 254.015625 C 174.246094 255.328125 179.648438 257.808594 179.074219 259.28125 C 180.449219 258.1875 180.101562 260.5625 181.359375 260.285156 C 181.421875 260.265625 181.542969 260.332031 181.5625 260.386719 C 181.785156 261.0625 182.507812 261.027344 182.976562 261.238281 C 186.652344 262.894531 190.019531 264.691406 193.632812 266.253906 C 194.621094 267.183594 195.609375 267.679688 196.898438 268.105469 C 197.613281 268.371094 198.050781 269.285156 198.980469 269.019531 C 199.179688 269.675781 199.84375 269.609375 200.308594 269.824219 C 201.417969 270.304688 202.054688 271.519531 203.363281 271.566406 C 203.519531 271.566406 203.765625 271.582031 203.847656 271.78125 C 204.246094 272.789062 205.613281 272.363281 206.058594 273.292969 C 206.726562 272.984375 206.992188 273.597656 207.378906 273.90625 C 208.292969 274.636719 208.285156 274.648438 209.1875 274.769531 C 209.234375 274.277344 208.710938 274.457031 208.542969 274.234375 C 207.734375 273.109375 206.546875 272.285156 205.453125 271.636719 C 205.234375 270.492188 203.90625 270.378906 203.429688 269.476562 C 203.046875 268.746094 201.691406 268.9375 201.804688 267.730469 C 200.808594 266.980469 199.621094 266.378906 199.066406 265.15625 C 198.160156 264.980469 197.527344 264.53125 197.421875 263.539062 C 197.414062 263.4375 197.171875 263.265625 197.066406 263.285156 C 196.460938 263.375 196.320312 262.777344 196.003906 262.507812 C 195.539062 261.820312 194.367188 261.328125 194.015625 260.753906 C 193.777344 260.023438 193.199219 259.683594 192.777344 259.199219 C 192.628906 259.023438 192.679688 258.660156 192.425781 258.679688 C 191.78125 258.734375 191.367188 258.265625 191.167969 257.871094 C 188.160156 254.3125 184.699219 251.378906 181.460938 248.007812 C 181.0625 247.347656 180.191406 247.582031 179.800781 246.800781 C 179.535156 246.238281 178.632812 246.375 178.445312 245.667969 C 177.917969 245.8125 177.753906 245.472656 177.605469 245.066406 C 177.507812 244.804688 177.285156 244.671875 176.988281 244.628906 C 176.117188 244.484375 175.734375 243.519531 174.871094 243.355469 C 174.804688 242.335938 173.464844 242.605469 173.242188 241.75 C 170.769531 240.171875 158.207031 231.054688 155.335938 228.710938 C 150.46875 225.582031 144.488281 224.585938 139.375 222.015625 C 138.894531 221.34375 137.507812 221.722656 137.15625 221.464844 C 135.53125 220.316406 133.445312 219.828125 131.582031 218.988281 C 126.527344 216.867188 120.976562 215.300781 116.484375 212.355469 C 113.605469 211.332031 110.597656 209.984375 108.351562 207.699219 C 108.292969 207.710938 108.25 207.6875 108.234375 207.628906 C 107.230469 207.253906 106.503906 206.3125 105.378906 206.167969 C 105.226562 206.148438 105.191406 206.007812 105.175781 205.867188 C 104.832031 204.867188 106.179688 204.195312 106.742188 205.089844 C 106.945312 205.382812 107.230469 205.390625 107.449219 205.527344 C 108.03125 205.886719 108.515625 205.101562 109.023438 205.527344 C 109.679688 205.558594 110.4375 205.214844 110.976562 205.683594 C 114.6875 206.484375 118.417969 207.65625 121.988281 208.984375 C 122.671875 209.273438 123.71875 208.917969 123.992188 210.027344 C 125.316406 209.902344 126.417969 210.792969 127.601562 211.339844 C 127.753906 211.414062 127.949219 211.574219 128.09375 211.355469 C 127.832031 210.285156 125.925781 210.296875 125.445312 209.128906 C 124.792969 209.039062 124.320312 208.769531 123.882812 208.296875 C 121.875 206.574219 119.484375 205.375 117.695312 203.40625 C 117.296875 203 116.59375 203.078125 116.347656 202.59375 C 115.777344 201.464844 114.316406 201.34375 113.773438 200.222656 C 112.167969 199.617188 111.347656 197.910156 109.71875 197.328125 C 109.171875 196.132812 107.472656 195.269531 106.863281 194.1875 C 106.761719 194.140625 106.660156 194.082031 106.558594 194.035156 C 106.414062 194.050781 106.3125 193.984375 106.222656 193.882812 C 105.859375 193.789062 105.757812 193.421875 105.59375 193.136719 C 105.453125 192.972656 105.101562 193.042969 105.128906 192.707031 C 104.898438 192.246094 104.273438 192.265625 104.027344 191.824219 C 103.542969 190.976562 102.652344 190.40625 102.164062 189.605469 C 102.042969 189.542969 101.945312 189.46875 101.941406 189.316406 C 101.34375 188.976562 100.628906 187.960938 100.667969 187.9375 C 100.5625 187.882812 100 187.269531 99.820312 187.050781 C 99.539062 186.714844 98.40625 185.886719 98.394531 185.632812 C 98.28125 185.601562 98.164062 185.578125 98.054688 185.566406 C 97.886719 185.558594 97.945312 185.203125 98.046875 185.191406 C 98.457031 185.148438 98.753906 184.722656 99.210938 184.757812 C 99.207031 184.992188 103.203125 187.554688 103.46875 187.859375 C 104.03125 188.015625 105.890625 189.457031 106.574219 189.648438 C 109.863281 191.601562 113.445312 194.390625 116.949219 196.535156 C 117.535156 196.804688 118.027344 197.78125 118.613281 197.78125 C 119.277344 197.574219 119.277344 198.523438 119.925781 198.417969 C 120.101562 198.453125 120.433594 198.546875 120.429688 198.578125 C 120.328125 199.355469 121.035156 199.351562 121.425781 199.527344 C 121.957031 199.640625 124.855469 202.523438 124.414062 201.160156 C 120.296875 196.226562 114.289062 192.398438 110.8125 186.988281 C 110.414062 186.988281 110.40625 186.6875 110.371094 186.410156 C 109.976562 185.863281 107.640625 183.695312 107.503906 183.027344 C 107.179688 182.296875 114.832031 184.789062 114.972656 185.46875 C 115.027344 185.753906 119.472656 189.425781 121.546875 191.136719 C 123.441406 192.558594 124.953125 194.78125 126.886719 196.347656 C 127.589844 197.261719 128.792969 197.953125 128.925781 199.175781 C 128.914062 199.308594 129.070312 199.355469 129.230469 199.316406 C 131.242188 199.390625 131.289062 202.164062 133.09375 202.820312 C 134.035156 204.542969 135.578125 205.46875 136.8125 206.898438 C 137.269531 207.5 137.511719 208.378906 138.464844 208.535156 C 139 209.664062 140.351562 210.195312 141.089844 211.257812 C 141.976562 213.089844 144.582031 213.253906 145.425781 215.0625 C 146.226562 215.125 146.625 216.066406 147.484375 216.007812 C 147.605469 216.003906 147.78125 215.992188 147.824219 216.148438 C 149.285156 217.898438 151.476562 218.824219 153.394531 220.042969 C 154.023438 220.886719 155.125 220.960938 155.871094 221.648438 C 156.769531 222.03125 157.796875 223.527344 158.753906 223.074219 C 158.960938 222.871094 158.722656 222.734375 158.59375 222.566406 C 156.773438 220.660156 155.375 218.347656 153.628906 216.421875 C 152.792969 216.175781 153.019531 214.96875 152.113281 214.820312 C 151.941406 214.492188 152.144531 214.082031 151.632812 213.941406 C 150.816406 212.0625 149.480469 210.632812 148.246094 208.976562 C 146.988281 207.011719 145.757812 204.785156 144.15625 203.171875 C 143.847656 201.453125 142.246094 200.648438 141.601562 199.167969 C 141.496094 198.609375 141.203125 197.96875 140.789062 197.601562 C 139.277344 196.03125 137.53125 194.375 136.285156 192.765625 C 135.558594 192.734375 135.199219 192.117188 134.765625 191.722656 C 131.765625 188.332031 128.402344 185.550781 125.035156 182.648438 C 124.582031 182.027344 123.929688 181.492188 123.078125 181.347656 C 122.390625 180.136719 120.742188 180.011719 120.234375 178.726562 C 120.140625 178.152344 119.488281 178.503906 119.160156 178.1875 C 118.359375 177.394531 117.285156 176.945312 116.429688 176.199219 C 115.011719 174.878906 112.988281 174.226562 111.46875 172.929688 C 109.210938 172.035156 107.621094 169.871094 105.199219 169.492188 C 103.65625 168.054688 100.925781 167.6875 99.496094 166.105469 C 95.265625 164.847656 91.769531 161.808594 87.425781 160.699219 C 85.609375 159.703125 83.640625 158.960938 81.695312 158.535156 C 79.847656 157.261719 77.71875 156.550781 75.476562 155.910156 C 74.222656 155.289062 72.980469 154.480469 71.617188 154.261719 C 70.949219 153.308594 69.496094 153.671875 68.878906 152.617188 C 68.675781 152.34375 67.992188 152.765625 67.824219 152.433594 C 67.558594 151.785156 66.875 151.640625 66.40625 151.246094 C 65.46875 150.445312 64.78125 149.292969 63.449219 149.027344 C 61.464844 148.464844 63.195312 145.460938 64.777344 146.730469 C 65.964844 147.527344 67.683594 146.726562 68.878906 147.457031 C 69.539062 147.933594 70.347656 147.667969 71.082031 148.011719 C 71.496094 148.207031 71.957031 148.628906 72.453125 148.582031 C 73.371094 148.347656 73.8125 149.472656 74.570312 149.304688 C 74.871094 149.082031 74.371094 148.601562 74.0625 148.691406 C 73.914062 148.714844 73.695312 148.886719 73.625 148.734375 C 73.304688 147.996094 72.304688 147.941406 72.054688 147.164062 C 71.984375 146.9375 71.84375 146.960938 71.695312 146.878906 C 70.371094 146.359375 69.378906 145.246094 68.378906 144.429688 C 66.832031 144.421875 65.839844 142.863281 64.734375 141.953125 C 64.609375 141.773438 64.578125 141.449219 64.238281 141.398438 C 62.648438 140.917969 61.957031 139.09375 60.457031 138.429688 C 60.050781 138.265625 59.84375 137.980469 59.777344 137.628906 C 59.328125 136.496094 57.796875 136.054688 57.285156 135.007812 C 56.914062 133.574219 55.347656 132.261719 54.851562 132.109375 C 54.527344 131.929688 54.179688 131.421875 54.683594 131.273438 C 55.773438 130.4375 57.132812 131.601562 58.113281 132.113281 C 58.914062 131.910156 59.257812 132.738281 59.925781 132.90625 C 60.269531 132.996094 60.816406 132.863281 61.015625 133.359375 C 61.152344 133.695312 61.4375 133.726562 61.730469 133.757812 C 62.910156 133.722656 63.230469 135.203125 64.214844 135.351562 C 66.445312 136.15625 67.984375 138.09375 70.230469 138.894531 C 73.21875 140.957031 76.296875 143.164062 79.429688 145.070312 C 79.988281 145.617188 80.429688 146.101562 81.273438 146.011719 C 81.703125 146.847656 82.601562 147.0625 83.386719 147.445312 C 82.808594 146.996094 82.914062 146.21875 82.277344 145.925781 C 81.308594 145.792969 80.988281 144.949219 80.65625 144.253906 C 80.105469 142.617188 78.425781 142.347656 77.792969 140.871094 C 77.566406 140.574219 77.050781 140.695312 77.050781 140.238281 C 72.6875 133.996094 63.152344 120.433594 62.976562 120.070312 C 62.777344 119.605469 69.234375 124.632812 71.007812 125.636719 C 71.261719 125.734375 71.675781 126.425781 71.816406 126.828125 C 73.179688 128.453125 74.898438 129.722656 76.097656 131.46875 C 76.277344 132.371094 77.238281 132.367188 77.648438 133 C 78.078125 134.707031 79.976562 134.320312 79.761719 135.128906 C 79.339844 135.917969 80.648438 136.199219 80.882812 136.707031 C 81.285156 137.453125 81.910156 137.957031 82.433594 138.574219 C 83.703125 140.140625 85.03125 141.730469 86.238281 143.339844 C 86.496094 143.765625 86.460938 144.339844 87.203125 144.113281 C 89.5 147.351562 92.460938 150.386719 95.082031 153.546875 C 95.417969 153.824219 95.742188 154.042969 95.855469 154.503906 C 96.96875 154.925781 97.679688 156.226562 98.570312 157.148438 C 99.628906 158.292969 101.242188 158.636719 102.144531 159.925781 C 104.164062 161.1875 106.410156 162.144531 108.21875 163.472656 C 109.035156 164.3125 110.589844 164.171875 111.070312 165.53125 C 113.683594 166.453125 115.578125 168.515625 117.773438 170.160156 C 118.828125 170.046875 119.851562 171.378906 120.984375 171.960938 C 121.261719 172.175781 121.128906 172.617188 121.496094 172.699219 C 123.054688 173.042969 123.726562 174.515625 124.898438 175.363281 C 125.371094 175.703125 127.488281 177.582031 128.128906 177.914062 C 128.511719 178.445312 123.960938 170.492188 122.449219 168.417969 C 119.6875 164.390625 117.570312 159.925781 114.554688 156.078125 C 112.433594 152.253906 109.042969 148.535156 106.753906 144.734375 C 106.988281 144.269531 106.589844 143.933594 106.386719 143.800781 C 105.519531 143.265625 104.984375 142.453125 104.472656 141.640625 C 101.652344 137.527344 98.082031 134 95.109375 130 C 92.027344 126.460938 89.078125 123.011719 85.640625 119.789062 C 85.183594 119.210938 85.046875 118.300781 84.101562 118.167969 C 83.929688 118.148438 84.066406 117.957031 84.03125 117.925781 C 83.707031 117.675781 83.886719 116.941406 83.171875 117.054688 C 81.351562 115.511719 78.886719 114.230469 76.640625 113.136719 C 75.738281 112.460938 74.585938 112.238281 73.820312 111.402344 C 73.21875 111.507812 72.710938 111.242188 72.183594 111.003906 C 71.378906 110.777344 70.710938 110.28125 69.957031 109.957031 C 69.128906 109.597656 67.984375 109.621094 67.636719 108.46875 C 67.574219 108.277344 67.484375 108.476562 67.421875 108.519531 C 66.578125 109.085938 66.726562 108 66.3125 108.066406 C 65.894531 108.328125 65.554688 108.007812 65.191406 107.976562 C 62.910156 107.148438 60.496094 106.671875 58.320312 105.507812 C 57.40625 104.925781 56.007812 105.519531 55.390625 104.261719 C 55.371094 104.214844 55.207031 104.1875 55.167969 104.222656 C 54.460938 104.734375 54.035156 103.867188 53.417969 103.808594 C 53.171875 103.78125 52.726562 103.972656 52.457031 103.664062 C 51.976562 103.109375 51.328125 102.820312 50.640625 102.691406 C 49.347656 102.445312 48.769531 101.058594 47.4375 100.824219 C 46.585938 100.675781 45.976562 99.90625 45.257812 99.425781 C 44.421875 98.867188 43.742188 98.183594 43.097656 97.445312 C 42.8125 97.320312 42.179688 96.648438 42.1875 96.460938 C 42.207031 96.140625 42.53125 96.003906 42.875 95.9375 C 43.433594 95.832031 44.511719 95.34375 45.390625 96.011719 C 46.464844 96.003906 47.53125 95.730469 48.414062 96.425781 C 50.421875 96.34375 52.351562 97.292969 54.160156 97.785156 C 54.453125 98.585938 55 98.273438 55.511719 98.277344 C 57.457031 98.625 59.246094 99.652344 61.121094 100.28125 C 61.765625 99.65625 60.75 99.582031 60.582031 99.121094 C 58.414062 97.65625 56.515625 95.695312 54.246094 94.273438 C 53.996094 94.082031 53.617188 93.972656 53.5625 93.660156 C 53.449219 93.039062 52.792969 92.976562 52.484375 92.800781 C 51.617188 92.253906 51.054688 91.34375 50.101562 90.980469 C 50.234375 90.230469 48.949219 90.46875 49.183594 89.652344 C 48.628906 89.753906 48.324219 89.609375 48.0625 89.183594 C 46.039062 86.890625 43.578125 85.023438 41.398438 82.898438 C 40.371094 82.058594 39.589844 80.867188 38.671875 80.027344 C 37.867188 79.929688 37.6875 79.003906 37.214844 78.484375 C 36.210938 77.230469 34.914062 76.183594 34.105469 74.792969 C 33.367188 74.570312 29.289062 68.152344 29.089844 68.023438 C 27.742188 67.21875 29.859375 65.898438 30.589844 66.753906 C 31.101562 67.195312 31.4375 67.847656 32.164062 68.0625 C 32.359375 68.125 32.75 68.238281 32.730469 68.628906 C 33.066406 68.953125 33.410156 69.28125 33.746094 69.609375 C 34.015625 69.492188 34.09375 69.59375 34.039062 69.859375 C 34.105469 69.925781 34.167969 69.996094 34.234375 70.0625 C 34.546875 70.105469 34.601562 70.445312 34.820312 70.589844 C 35.765625 70.621094 35.59375 71.59375 36.027344 72.089844 C 36.058594 72.066406 36.085938 72.042969 36.117188 72.019531 C 36.09375 71.988281 36.0625 71.949219 36.039062 71.917969 C 37.144531 72.132812 37.609375 73.507812 38.648438 73.785156 C 39.835938 73.96875 39.972656 75.15625 40.664062 75.824219 C 41.273438 76.039062 41.75 76.398438 41.976562 77.023438 C 42.207031 77.40625 42.628906 76.941406 42.953125 77.320312 C 43.859375 78.488281 45.183594 79.234375 46.183594 80.277344 C 46.460938 80.636719 46.585938 81.132812 47.234375 80.980469 C 47.617188 81.117188 47.648438 81.832031 48.144531 81.984375 C 49.382812 82.4375 50.257812 83.402344 51.179688 84.304688 C 52.988281 85.738281 54.988281 87.035156 56.515625 88.75 C 58.542969 89.101562 59.515625 91.515625 61.449219 92.308594 C 61.464844 90.964844 60.265625 90.484375 59.632812 89.632812 C 58.304688 86.820312 55.550781 84.894531 54.417969 82.054688 C 50.535156 77.976562 47.71875 72.582031 44.707031 67.871094 C 44.609375 67.226562 44.195312 66.726562 43.910156 66.160156 C 44.878906 65.613281 48.617188 68.183594 48.921875 68.625 C 49.503906 68.757812 50.660156 69.878906 50.9375 70.476562 C 51.117188 70.503906 51.15625 70.632812 51.132812 70.789062 C 52.53125 72.375 54 74.300781 55.160156 75.949219 C 56.105469 76.242188 56.113281 77.253906 56.804688 77.777344 C 57.457031 78.261719 57.445312 79.519531 58.417969 79.980469 C 58.476562 80.007812 58.511719 80.214844 58.472656 80.257812 C 58.191406 81.203125 59.632812 81.363281 59.980469 82.101562 C 60.632812 84.308594 62.6875 85.851562 63.761719 87.914062 C 64.066406 88.375 64.191406 89.113281 64.78125 89.253906 C 65.257812 89.363281 65.316406 89.679688 65.359375 89.957031 C 66.867188 92.199219 68.625 94.292969 70.46875 96.375 C 73.769531 100.136719 77.347656 103.765625 80.722656 107.378906 C 83.191406 108.613281 84.371094 111.382812 86.886719 112.636719 C 87.292969 112.898438 87.332031 113.640625 88.035156 113.578125 C 88.082031 113.574219 88.1875 113.796875 88.195312 113.921875 C 88.382812 114.980469 89.660156 115.386719 89.808594 116.5 C 95.074219 121.714844 99.542969 127.539062 104.027344 133.304688 C 104.226562 133.214844 104.351562 133.066406 104.394531 132.851562 C 104.367188 132.820312 104.347656 132.78125 104.34375 132.734375 C 104.210938 132.546875 103.816406 132.5625 103.898438 132.195312 C 103.699219 131.691406 103.621094 131.144531 103.316406 130.675781 C 103.566406 129.726562 102.425781 129.371094 102.371094 128.492188 C 102.351562 128.214844 101.898438 127.851562 101.890625 127.421875 C 101.960938 126.671875 101.113281 127.453125 101.316406 126.386719 C 101.425781 124.910156 100.046875 124.667969 99.902344 123.507812 C 99.925781 122.414062 98.742188 121.769531 98.589844 120.628906 C 98.460938 119.363281 97.429688 118.601562 97.152344 117.40625 C 97.058594 117.203125 97.300781 116.898438 97.082031 116.8125 C 95.964844 116.394531 97.1875 115.421875 96.425781 114.828125 C 96.164062 114.597656 95.910156 114.355469 96.121094 113.941406 C 95.613281 113.082031 94.515625 112.078125 94.71875 110.71875 C 93.296875 109.648438 93.765625 107.667969 92.152344 106.683594 C 91.898438 106.542969 91.542969 106.210938 91.699219 105.753906 C 91.328125 104.605469 90.445312 103.523438 90.195312 102.257812 C 84.570312 91.625 76.535156 82.769531 69.253906 73.371094 C 64.851562 69.636719 55.675781 61.246094 55.21875 61.183594 C 53.375 60.753906 51.761719 59.601562 49.878906 59.445312 C 49.4375 59.492188 49.472656 59.019531 49.300781 58.789062 C 48.914062 58.121094 48.785156 59.550781 47.84375 58.582031 C 47.195312 57.953125 46.292969 58.140625 45.601562 57.738281 C 45.09375 57.066406 44.257812 57.222656 43.605469 56.925781 L 43.601562 56.949219 C 41.238281 55.886719 38.476562 54.789062 36.09375 53.792969 C 34.988281 53.679688 30.9375 49.449219 30.382812 49.550781 C 29.972656 49.617188 28.867188 48.6875 29.265625 48.339844 C 29.539062 48.21875 29.476562 47.789062 30.019531 47.839844 C 31.125 48.363281 32.082031 47.519531 33.195312 47.667969 C 34.269531 48.132812 35.136719 48.15625 36.277344 48.136719 C 36.898438 48.347656 37.414062 49.050781 38.199219 48.617188 C 38.804688 49.371094 40.167969 48.671875 40.546875 49.859375 C 40.558594 49.894531 40.691406 49.90625 40.765625 49.914062 C 42.464844 49.828125 43.488281 51.035156 45.234375 51.425781 C 46.382812 51.902344 47.753906 52.007812 48.847656 52.679688 C 48.84375 52.578125 48.863281 52.394531 48.828125 52.382812 C 48.410156 52.226562 48.414062 51.660156 47.847656 51.558594 C 47.015625 51.46875 46.726562 50.78125 46.527344 50.03125 C 45.949219 50.558594 46.027344 49.355469 45.558594 49.488281 C 44.898438 49.824219 44.714844 49.253906 44.433594 48.921875 C 43.824219 48.320312 42.914062 48.113281 42.4375 47.332031 C 38.300781 44.878906 33.378906 41.335938 31.3125 36.84375 C 30.246094 35.734375 29.925781 34.710938 31.710938 34.339844 C 32.128906 34.070312 32.492188 34.304688 32.875 34.445312 C 33.226562 33.996094 33.5625 34.628906 33.953125 34.6875 C 34.84375 34.632812 35.226562 35.332031 35.953125 35.773438 C 36.742188 36.128906 37.863281 36.347656 38.160156 37.46875 C 38.789062 37.964844 39.871094 38.03125 40.054688 39.074219 C 40.097656 39.339844 40.570312 39.234375 40.800781 39.257812 C 41.425781 38.011719 38.847656 36.902344 38.445312 35.652344 C 36.785156 32.941406 33.246094 25.804688 32.785156 25.558594 C 33.199219 25.355469 32.871094 24.8125 33.210938 24.542969 C 33.84375 25.410156 34.785156 25.566406 35.648438 25.9375 C 36.195312 25.875 36.1875 26.492188 36.546875 26.667969 C 36.808594 26.636719 36.964844 26.742188 37.027344 27.003906 C 37.160156 27.046875 37.253906 27.121094 37.277344 27.261719 C 37.453125 27.367188 37.6875 27.398438 37.761719 27.632812 C 42.546875 32.59375 46.683594 38.363281 51.089844 43.648438 C 51.21875 44.539062 52.09375 44.746094 52.339844 45.488281 C 52.5 45.96875 53.289062 46.082031 53.296875 46.824219 C 53.300781 47 53.855469 47.1875 54.023438 47.496094 C 56.332031 51.148438 58.957031 54.523438 61.722656 57.910156 C 61.976562 58.363281 61.929688 59.109375 62.765625 59.058594 C 63.410156 60.460938 65.078125 61.050781 65.941406 62.371094 C 67.019531 63.558594 68.144531 64.730469 68.921875 66.070312 C 69.757812 66.320312 69.648438 67.53125 70.570312 67.71875 C 70.898438 68.84375 72.144531 69.621094 73.027344 70.453125 C 73.125 71.933594 74.679688 72.378906 75.253906 73.5625 C 75.644531 74.371094 76.46875 74.996094 77.160156 75.636719 C 78.785156 77.898438 80.316406 80.121094 82.117188 82.25 C 81.875 81.632812 82.054688 80.871094 81.359375 80.453125 C 80.789062 80.105469 80.867188 79.4375 80.730469 78.90625 C 80.648438 78.578125 80.179688 78.257812 80.34375 78.117188 C 80.96875 77.59375 80.304688 77.609375 80.113281 77.421875 C 79.730469 77.015625 79.6875 76.433594 79.304688 76.011719 C 79.085938 75.765625 79.480469 75.640625 79.601562 75.449219 C 79.839844 74.789062 78.101562 75.265625 78.425781 73.671875 C 78.488281 73.140625 78.398438 72.714844 77.925781 72.390625 C 77.121094 71.160156 76.613281 69.566406 76.261719 68.113281 C 75.421875 67.773438 76.035156 66.507812 75.078125 66.238281 C 75.078125 66.238281 75.082031 66.226562 75.085938 66.210938 C 75.09375 66.210938 75.105469 66.210938 75.113281 66.210938 C 75.105469 66.199219 75.09375 66.183594 75.085938 66.171875 C 74.507812 65.484375 74.574219 64.496094 74.03125 63.808594 C 73.375 62.976562 73.765625 61.558594 72.488281 61.082031 C 72.007812 59.042969 70.46875 57.421875 70.457031 55.355469 C 69.554688 54.867188 69.476562 53.765625 68.78125 53.113281 C 68.640625 52.984375 68.378906 52.671875 68.660156 52.339844 C 68.761719 51.257812 67.441406 50.359375 67.246094 49.242188 C 65.605469 46.523438 62.972656 44.347656 61.277344 41.730469 C 60.230469 41.371094 59.777344 40.363281 59.144531 39.539062 C 58.527344 38.769531 57.339844 38.433594 57.316406 37.203125 C 55.394531 36.496094 54.203125 34.433594 52.753906 33 C 52.226562 32.238281 51.199219 32.160156 50.953125 31.160156 C 50.316406 30.132812 49.121094 29.609375 48.316406 28.730469 C 47.835938 28.980469 47.617188 27.929688 47.300781 27.644531 C 45.71875 26.269531 44.304688 24.65625 42.648438 23.292969 C 42.40625 23.316406 42.386719 23.171875 42.40625 22.992188 C 42.375 22.53125 41.859375 22.539062 41.667969 22.234375 C 41.441406 22.175781 41.277344 22.058594 41.335938 21.789062 C 41.289062 21.710938 41.242188 21.632812 41.195312 21.554688 C 40.859375 21.734375 40.691406 21.570312 40.597656 21.257812 C 37.519531 17.84375 33.703125 15.027344 31.492188 10.859375 C 30.660156 10.425781 30.691406 9.359375 30.019531 8.808594 C 29.996094 8.785156 30.023438 8.636719 30.066406 8.589844 C 30.355469 8.300781 30.0625 6.792969 31.125 8.074219 C 31.546875 8.222656 32.160156 8.15625 32.550781 8.460938 C 32.832031 8.492188 32.621094 8.949219 32.976562 8.9375 C 33.863281 8.90625 34.421875 9.644531 35.144531 9.988281 C 37.53125 11.613281 39.59375 13.742188 41.820312 15.632812 C 42.101562 15.914062 42.144531 16.386719 42.558594 16.539062 C 45.519531 17.886719 46.976562 21.078125 49.664062 22.765625 C 50.835938 24.421875 52.585938 25.414062 53.675781 27.238281 C 54.050781 27.945312 55.128906 28.171875 55.597656 28.859375 C 55.851562 29.101562 55.992188 28.839844 56.167969 28.726562 C 55.769531 28.183594 55.890625 27.417969 55.363281 26.925781 C 54.464844 26.089844 54.550781 24.613281 53.421875 23.917969 C 53.101562 23.660156 53.65625 23.246094 53.351562 22.957031 C 52.78125 22.328125 52.328125 21.613281 52.175781 20.789062 C 52.09375 20.335938 51.566406 20.722656 51.605469 20.394531 C 51.707031 19.492188 51.269531 18.878906 50.769531 18.167969 C 50.285156 17.480469 50.5 16.394531 49.546875 15.855469 C 49.03125 15.566406 49.632812 14.523438 48.6875 14.386719 C 48.476562 14.265625 48.632812 13.703125 48.382812 13.546875 C 47.246094 12.816406 47.117188 10.945312 47.101562 10.804688 C 47.078125 10.574219 46.871094 10.503906 46.726562 10.453125 C 45.980469 10.160156 46.441406 9.222656 46.066406 8.65625 C 45.816406 8.375 44.753906 5.578125 44.195312 4.789062 C 44.210938 4.296875 44.074219 3.890625 43.570312 3.683594 C 43.445312 3.632812 43.402344 3.492188 43.472656 3.351562 C 43.125 2.96875 42.890625 2.554688 43 2.03125 C 42.703125 1.78125 42.796875 1.210938 42.273438 1.140625 C 41.613281 -1.503906 45.730469 0.953125 45.609375 2.242188 C 45.871094 2.300781 45.617188 2.847656 46.011719 2.722656 C 46.46875 2.578125 46.5625 2.742188 46.4375 3.117188 C 46.378906 3.960938 47.320312 4.539062 47.691406 5.25 C 47.796875 5.28125 47.773438 5.347656 47.746094 5.425781 C 47.839844 5.554688 48.082031 5.550781 48.03125 5.785156 C 48.089844 5.863281 48.148438 5.945312 48.203125 6.023438 C 48.433594 6.109375 48.574219 6.253906 48.519531 6.519531 C 48.605469 6.644531 48.6875 6.761719 48.773438 6.886719 C 49.070312 6.859375 49.058594 6.992188 48.933594 7.1875 C 49.085938 7.523438 49.351562 7.828125 49.636719 8.070312 C 50.417969 8.382812 50.34375 9.632812 51.269531 9.90625 C 51.355469 10.03125 51.035156 10.410156 51.273438 10.527344 C 52.402344 11.152344 52.277344 12.367188 53.269531 13.164062 C 53.855469 13.472656 53.628906 14.671875 54.589844 14.882812 C 54.519531 16.210938 56.441406 17.730469 57.269531 18.964844 C 57.546875 19.28125 57.316406 19.742188 57.671875 19.9375 C 58.378906 20.332031 58.34375 21.421875 59.265625 21.609375 C 59.578125 22.078125 59.417969 22.769531 60.050781 23.167969 C 60.328125 23.40625 60.410156 23.8125 60.90625 23.894531 C 61.039062 23.917969 60.730469 24.667969 60.972656 25.058594 C 61.113281 25.648438 61.761719 25.828125 61.96875 26.394531 C 62.554688 27.386719 63.253906 28.632812 63.835938 29.539062 C 64.707031 30.042969 64.398438 31.109375 65.136719 31.609375 C 65.476562 31.8125 65.515625 32.085938 65.574219 32.398438 C 65.671875 32.460938 65.757812 32.523438 65.855469 32.585938 C 65.34375 24.90625 61.742188 17.28125 62.121094 9.625 C 62.011719 9.5 61.914062 9.371094 62.167969 9.289062 C 62.222656 9.210938 62.277344 9.132812 62.324219 9.058594 C 61.925781 8.503906 61.765625 7.898438 62.003906 7.238281 C 62.335938 5.550781 63.769531 9.367188 64.050781 9.839844 C 64.929688 10.363281 64.511719 11.308594 64.851562 12.074219 C 65.085938 12.023438 65.121094 12.234375 64.914062 12.300781 C 66.601562 18.101562 67.640625 24.273438 68.839844 30.21875 C 69.699219 31.019531 68.863281 32.261719 69.128906 33.277344 C 69.15625 33.554688 69.21875 33.792969 69.433594 33.984375 C 70.632812 34.890625 69.648438 36.316406 70.226562 37.550781 C 71.003906 40.285156 72.214844 42.785156 73.0625 45.449219 C 72.976562 46.246094 73.324219 46.914062 73.679688 47.617188 C 73.871094 48 74.480469 47.988281 74.414062 48.542969 C 74.542969 50.019531 75.785156 51.203125 76.046875 52.648438 C 76.792969 53.058594 77.0625 53.925781 77.164062 54.625 C 77.457031 56.257812 78.722656 57.179688 79.046875 58.722656 C 79.953125 59.421875 79.644531 60.8125 80.511719 61.585938 C 80.117188 62.304688 80.886719 62.617188 81.113281 63.078125 C 81.671875 63.996094 82.050781 65 82.304688 66.019531 C 83.25 66.332031 83.066406 67.304688 83.367188 67.957031 C 83.65625 68.582031 84.390625 69.144531 83.96875 70 C 84.671875 70.378906 84.988281 71.011719 85.109375 71.773438 C 85.265625 71.617188 85.429688 71.460938 85.585938 71.300781 C 84.996094 68.59375 85.746094 65.84375 84.871094 63.109375 C 84.726562 63.078125 84.566406 62.9375 84.617188 62.859375 C 84.910156 62.449219 84.679688 62.039062 84.667969 61.628906 C 83.855469 61.269531 84.527344 60.851562 84.902344 60.410156 C 84.808594 60.324219 84.722656 60.234375 84.628906 60.148438 C 83.871094 60.34375 83.921875 59.1875 84.359375 58.808594 C 84.386719 58.507812 83.875 58.128906 84.492188 57.925781 C 83.570312 57.273438 84.234375 56.605469 84.078125 55.785156 C 83.941406 55.578125 83.515625 55.480469 83.835938 55.109375 C 83.582031 53.507812 83.425781 51.914062 83.421875 50.246094 C 83.308594 48.527344 82.515625 46.890625 82.722656 45.109375 C 82.730469 44.644531 83.304688 44.117188 82.523438 43.75 C 82.6875 43.097656 83.074219 42.4375 82.425781 41.761719 C 81.800781 40.730469 82.648438 39.179688 82.101562 38.15625 C 81.574219 37.304688 82.03125 36.644531 82.09375 35.855469 C 81.835938 35.074219 81.917969 34.34375 82.410156 33.675781 C 82.542969 33.503906 82.695312 33.335938 82.445312 33.144531 C 81.484375 32.898438 82.183594 31.675781 82.535156 31.210938 C 82.765625 31.246094 82.800781 31.019531 82.542969 31.015625 C 81.960938 30.414062 83.238281 28.96875 83.832031 29.910156 C 83.808594 28.710938 83.808594 28.710938 84.527344 28.425781 C 84.195312 28.945312 84.847656 29.242188 84.699219 29.640625 C 84.414062 30.421875 84.960938 31.011719 85.0625 31.691406 C 86.296875 33.289062 86.992188 35.859375 87.074219 37.847656 C 87.09375 37.886719 87.109375 37.925781 87.117188 37.96875 C 87.238281 38.054688 87.304688 38.160156 87.25 38.316406 C 87.339844 38.378906 87.429688 38.445312 87.519531 38.507812 C 88.078125 38.351562 87.359375 39.394531 87.9375 39.734375 C 87.691406 39.894531 87.617188 40.171875 87.523438 40.4375 C 87.546875 40.480469 87.570312 40.523438 87.574219 40.566406 C 87.753906 40.667969 87.929688 40.554688 88.101562 40.542969 C 88.097656 40.273438 88.121094 39.988281 87.953125 39.746094 C 90.339844 35.261719 88.488281 26.664062 91.578125 23.082031 C 91.6875 21.484375 91.15625 21.203125 93.050781 21.179688 C 93.515625 21.027344 93.566406 21.101562 93.460938 21.589844 C 93.726562 22.140625 94.175781 22.621094 94.21875 23.304688 C 95.3125 24.238281 95.386719 25.382812 95.289062 26.660156 C 95.523438 27.054688 95.363281 27.332031 95.011719 27.546875 C 94.988281 27.632812 94.960938 27.714844 94.929688 27.804688 C 95.570312 28.34375 95.34375 28.859375 94.898438 29.378906 C 94.914062 29.417969 94.917969 29.464844 94.902344 29.507812 C 95.230469 29.816406 95.277344 30.308594 94.78125 30.546875 C 94.789062 30.707031 94.738281 30.820312 94.558594 30.828125 C 94.5625 30.941406 94.574219 31.050781 94.578125 31.164062 C 95.199219 31.214844 95.085938 31.527344 94.835938 31.890625 C 94.988281 32.398438 94.585938 32.761719 94.5 33.210938 C 94.265625 34.40625 94.792969 35.703125 94.027344 36.835938 C 94.480469 38.472656 93.46875 39.953125 93.632812 41.578125 C 93.773438 44.988281 92.761719 48.59375 92.742188 52.039062 C 93.160156 53.398438 91.980469 54.589844 92.425781 55.773438 C 92.839844 56.976562 92.363281 57.585938 91.542969 58.316406 C 91.582031 59.699219 91.230469 61.164062 91.140625 62.449219 C 91.53125 62.816406 91.328125 63.21875 91.28125 63.636719 C 91.253906 63.863281 90.855469 64.0625 91.140625 64.257812 C 91.46875 64.488281 91.535156 63.949219 91.820312 63.894531 C 91.921875 63.875 92.054688 63.691406 91.917969 63.441406 C 91.480469 62.554688 92.878906 61.902344 92.804688 61.011719 C 92.835938 59.992188 93.28125 58.445312 94.109375 58.089844 C 94.109375 58.089844 95.109375 56.949219 94.738281 56.132812 C 95.503906 53.820312 98.722656 48.113281 98.832031 47.3125 C 98.882812 46.640625 99.535156 46.40625 99.847656 45.992188 C 99.664062 45.03125 100.484375 44.859375 101.019531 44.460938 C 101.195312 44.089844 101.675781 43.675781 101.984375 43.613281 C 102.117188 43.335938 102.972656 43.746094 103.445312 43.113281 C 103.355469 43.191406 104.117188 45.453125 103.769531 46.191406 C 103.5 47.167969 103.425781 48.210938 102.8125 49.082031 C 103.546875 49.832031 102.351562 50.585938 102.210938 51.378906 C 102.585938 52.121094 101.691406 52.351562 101.683594 52.996094 C 101.8125 53.347656 101.792969 53.753906 101.507812 53.9375 C 100.953125 54.289062 101.085938 54.917969 100.800781 55.375 C 100.789062 55.714844 100.667969 55.96875 100.359375 56.207031 C 100.375 56.636719 100.339844 57.023438 100.039062 57.378906 C 100.089844 57.761719 99.886719 57.964844 99.558594 58.074219 C 99.460938 58.230469 99.203125 58.308594 99.332031 58.570312 C 100.15625 58.410156 98.878906 60.285156 98.660156 60.570312 C 98.527344 61.074219 98.5625 61.621094 98.179688 62.023438 C 98.226562 62.417969 98.382812 62.828125 97.980469 63.140625 C 97.632812 64 97.113281 64.8125 97.234375 65.808594 C 96.886719 66.71875 96.09375 67.441406 96.023438 68.523438 C 95.097656 71.984375 94.515625 75.492188 93.765625 78.976562 C 94.007812 80.386719 93.257812 81.960938 93.496094 83.335938 C 94.054688 85.238281 93.53125 87.027344 94.011719 88.988281 C 94.164062 91.109375 93.738281 93.546875 95.375 95.25 C 95.550781 96.277344 96.207031 97.121094 96.335938 98.207031 C 96.453125 98.992188 97.175781 99.535156 97.183594 100.363281 C 98.195312 100.582031 97.667969 101.703125 98.265625 102.246094 C 98.816406 102.503906 98.640625 103.953125 98.875 104.402344 C 100 104.316406 98.78125 105.3125 99.433594 105.640625 C 100.242188 106.539062 100.6875 107.773438 101.1875 109.019531 C 101.480469 109.796875 102.257812 110.351562 102.1875 111.289062 C 102.417969 111.980469 103.121094 112.59375 103.171875 113.34375 C 103.175781 114.160156 104.105469 114.695312 103.800781 115.582031 C 104.042969 115.714844 104.527344 116.074219 104.402344 116.402344 C 104.273438 116.910156 104.632812 117.148438 104.875 117.429688 C 105.734375 118.632812 105.769531 120.292969 106.730469 121.503906 C 107.125 122.152344 106.902344 123.101562 107.726562 123.535156 C 108.308594 125.324219 109.167969 127.066406 109.636719 128.859375 C 110.578125 129.445312 110.171875 130.832031 111.148438 131.394531 C 111.210938 131.433594 111.199219 131.585938 111.230469 131.691406 C 111.617188 133.507812 112.792969 134.878906 113.632812 136.503906 C 113.960938 137.226562 113.675781 138.28125 114.667969 138.679688 C 114.539062 139.375 115.542969 139.613281 115.429688 140.035156 C 115.664062 141.570312 116.789062 143.539062 117.546875 145.007812 C 118.675781 145.890625 118.453125 147.132812 119.214844 148.273438 C 119.542969 148.625 120.195312 149.125 119.878906 149.882812 C 119.851562 149.941406 120.117188 150.082031 120.179688 150.214844 C 120.539062 150.96875 121.285156 151.511719 121.351562 152.4375 C 121.367188 152.6875 121.382812 153.085938 121.882812 153.070312 C 122.277344 153.058594 122.265625 153.425781 122.167969 153.664062 C 121.902344 154.289062 122.292969 154.574219 122.742188 154.765625 C 123.621094 155.515625 123.613281 157.027344 124.46875 157.925781 C 124.617188 157.835938 124.765625 157.886719 124.910156 157.929688 C 124.925781 157.851562 124.9375 157.765625 124.953125 157.691406 C 124.890625 157.550781 124.734375 157.445312 124.828125 157.265625 C 124.71875 157.15625 124.660156 157.03125 124.746094 156.886719 C 124.058594 155.601562 124.703125 154.054688 124.132812 152.789062 C 123.824219 152.410156 124.21875 151.949219 123.925781 151.617188 C 123.519531 151.152344 124 150.425781 123.414062 150.019531 C 123.355469 149.972656 123.4375 149.804688 123.550781 149.78125 C 124.292969 149.601562 123.390625 149.417969 123.550781 149.246094 C 123.464844 149.25 123.355469 149.449219 123.375 149.132812 C 123.417969 148.578125 122.980469 147.832031 122.738281 147.738281 C 121.703125 147.34375 122.246094 146.574219 122.125 145.976562 C 122.058594 145.6875 121.46875 145.738281 121.6875 145.277344 C 121.488281 144.699219 121.539062 144.210938 121.800781 143.683594 C 121.761719 143.597656 121.714844 143.519531 121.671875 143.4375 C 120.933594 143.414062 121.46875 142.898438 121.375 142.625 C 121.152344 141.988281 120.386719 141.371094 121.1875 140.625 C 120.714844 139.804688 120.070312 139.042969 120.253906 137.980469 C 119.972656 137.753906 120.535156 137.464844 120.171875 137.210938 C 119.410156 136.6875 119.351562 135.730469 119.339844 135.03125 C 119.078125 133.464844 118.71875 131.660156 118.351562 130.277344 C 117.804688 130.222656 117.902344 129.722656 117.894531 129.453125 C 117.671875 128.417969 118.15625 126.925781 117.746094 126.082031 C 116.988281 126.105469 117.21875 125.480469 117.273438 125.25 C 117.539062 124.183594 116.121094 124.144531 116.425781 123.160156 C 116.4375 122.445312 116.609375 121.652344 116.140625 121.054688 C 115.855469 120.683594 115.824219 120.449219 116.136719 120.199219 C 116.847656 119.527344 115.261719 119.84375 115.425781 118.699219 C 115.265625 117.613281 114.355469 116.671875 114.808594 115.480469 C 114.066406 113.75 113.433594 111.847656 113.554688 109.941406 C 113.058594 109.542969 112.890625 108.996094 112.875 108.386719 C 112.859375 108.347656 112.832031 108.304688 112.816406 108.261719 C 112.875 108.261719 112.929688 108.265625 112.988281 108.265625 C 113.078125 107.722656 112.304688 107.507812 112.476562 106.929688 C 112.070312 106.457031 112.402344 105.914062 112.457031 105.410156 C 112.457031 105.074219 111.855469 105.214844 111.972656 104.898438 C 112.214844 104.257812 111.730469 103.589844 112.117188 102.976562 C 112.175781 102.53125 111.554688 102.425781 111.78125 101.972656 C 111.851562 101.714844 111.605469 101.421875 111.851562 101.179688 C 111.464844 100.632812 111.292969 100.070312 111.617188 99.417969 C 111.792969 99.054688 111.273438 95.234375 111.835938 94.699219 C 112.304688 94.421875 112.496094 95.175781 112.917969 95 C 113.695312 94.785156 113.800781 95.242188 113.714844 95.851562 C 114.066406 96.367188 114.957031 98.34375 114.757812 98.832031 C 115.8125 99.109375 115.652344 100.054688 115.851562 100.808594 C 116.15625 101.25 116.886719 101.488281 116.488281 102.261719 C 116.378906 102.609375 116.941406 102.976562 116.90625 103.339844 C 117.691406 104.105469 117.546875 105.003906 117.726562 105.917969 C 117.796875 105.910156 117.921875 105.898438 117.921875 105.898438 C 117.949219 106.050781 117.828125 106.101562 117.734375 106.167969 C 117.808594 106.253906 117.882812 106.332031 117.957031 106.417969 C 118.167969 106.394531 118.480469 106.460938 118.449219 106.632812 C 118.648438 107.628906 118.5 108.984375 119.492188 109.492188 C 119.347656 107.859375 119.660156 106.183594 119.726562 104.6875 C 119.8125 102.125 120.324219 99.609375 120.59375 97.050781 C 120.277344 96.546875 120.84375 96.332031 121.101562 95.96875 C 121.132812 95.710938 120.71875 95.519531 120.972656 95.21875 C 120.730469 94.84375 121.089844 94.53125 121.199219 94.179688 C 121.039062 93.433594 122.191406 93.023438 121.828125 92.410156 C 121 91.554688 122.832031 89.621094 122.570312 88.304688 C 122.664062 87.324219 123.878906 87.253906 124.191406 86.347656 C 123.632812 88.363281 123.894531 90.722656 124.269531 92.757812 C 124.742188 93.054688 124.390625 93.457031 124.417969 93.816406 C 124.277344 94.097656 124.109375 94.449219 124.285156 94.699219 C 124.65625 95.472656 124.210938 96.347656 124.332031 97.183594 C 124.113281 97.84375 125.035156 97.316406 124.65625 98.121094 C 123.941406 99.882812 125.285156 99.589844 124.957031 100.523438 C 124.011719 101.972656 125.910156 103.5 124.824219 104.777344 C 124.683594 104.972656 124.628906 105.160156 124.90625 105.292969 C 125.535156 106.355469 124.457031 108.230469 125.347656 109.457031 C 125.4375 110.246094 125 111.113281 125.378906 111.9375 C 125.492188 112.277344 125.476562 112.648438 125.222656 112.949219 C 125.480469 113.230469 125.0625 113.609375 125.363281 113.902344 C 125.660156 114.191406 125.558594 114.523438 125.378906 114.839844 C 125.585938 115.542969 125.535156 116.90625 126.386719 115.894531 C 126.65625 112.171875 128.667969 108.964844 129.558594 105.496094 C 129.769531 104.492188 130.894531 103.871094 131.015625 102.730469 C 131.105469 102.34375 131.191406 101.882812 131.652344 101.695312 C 131.71875 101.105469 132.40625 101.207031 132.671875 100.738281 C 133.136719 99.921875 133.726562 98.027344 135.707031 98.328125 C 135.277344 101.984375 135.433594 105.773438 133.695312 109.125 C 133.898438 110.65625 132.75 111.785156 132.605469 113.109375 C 132.625 114.128906 131.769531 115.078125 131.882812 116.171875 C 132.015625 116.351562 131.953125 116.492188 131.796875 116.613281 C 131.789062 116.660156 131.777344 116.703125 131.753906 116.746094 C 131.890625 117.3125 131.402344 117.589844 131.1875 118 C 131.203125 118.972656 131.238281 119.910156 130.730469 120.792969 C 130.75 121.351562 130.375 123.25 130.117188 123.730469 C 130.242188 123.871094 130.28125 124.015625 130.140625 124.167969 C 130.117188 124.472656 130.074219 124.769531 129.8125 124.984375 C 129.804688 125.101562 129.796875 125.21875 129.792969 125.335938 C 129.945312 125.601562 129.808594 125.753906 129.585938 125.878906 C 129.582031 125.929688 129.574219 125.976562 129.570312 126.023438 C 129.765625 127.175781 128.859375 128.496094 128.667969 129.695312 C 129.136719 130.519531 127.871094 131.132812 128.679688 131.902344 C 128.761719 131.988281 128.714844 132.21875 128.550781 132.203125 C 127.765625 132.308594 128.808594 134.039062 127.984375 134.488281 C 127.347656 141.382812 129.167969 148.292969 130.367188 155.082031 C 130.378906 155.464844 130.085938 155.894531 130.402344 156.289062 C 130.96875 157.234375 130.421875 158.398438 130.855469 159.398438 C 130.84375 160.410156 131.796875 161.296875 131.316406 162.28125 C 131.738281 163.105469 132.492188 163.984375 131.851562 164.945312 C 132.664062 165.054688 132.15625 165.867188 132.199219 166.394531 C 132.808594 166.886719 131.785156 167.183594 132.402344 167.753906 C 133.265625 169.039062 132.992188 170.65625 133.519531 172.066406 C 133.710938 172.421875 134.050781 172.933594 133.78125 173.453125 C 135.824219 178.238281 139.691406 182.441406 141.621094 187.25 C 142.03125 188.046875 143.011719 188.691406 143.25 189.46875 C 143.144531 190.492188 144.117188 190.894531 144.519531 191.574219 C 146.128906 194.011719 147.925781 196.894531 149.207031 199.183594 C 150.011719 199.738281 150.304688 200.699219 150.648438 201.53125 C 152.277344 203.40625 153.550781 205.617188 154.976562 207.542969 C 157.542969 211.207031 160.226562 214.75 162.585938 218.433594 C 165.308594 220.601562 166.425781 224.398438 169.375 226.222656 C 169.175781 225.96875 169.316406 225.589844 169.191406 225.171875 C 169.175781 224.515625 168.351562 225.152344 168.269531 224.578125 C 168.210938 224.195312 168.601562 223.707031 168.058594 223.429688 C 166.894531 222.03125 166.660156 220.054688 165.636719 218.539062 C 165.417969 218.269531 165.757812 217.792969 165.546875 217.628906 C 164.792969 217.039062 164.753906 216.296875 165 215.355469 C 164.128906 215.851562 164.132812 215.304688 164.050781 214.75 C 164.25 213.648438 162.882812 212.96875 163.015625 211.773438 C 162.667969 211.390625 162.273438 211.019531 162.671875 210.445312 C 162.625 209.488281 161.488281 209.195312 161.488281 208.199219 C 161.203125 205.359375 159.023438 202.605469 158.210938 199.652344 C 157.285156 199.441406 157.335938 198.59375 157.046875 197.878906 C 157 197.84375 156.941406 197.808594 156.890625 197.773438 C 156.644531 196.832031 156.769531 195.699219 155.539062 195.261719 C 155.3125 195.183594 155.59375 195.023438 155.640625 194.894531 C 155.875 194.367188 155.625 194.316406 155.222656 194.519531 C 155.648438 193.128906 153.945312 192.558594 154.039062 191.296875 C 153.765625 189.773438 152.675781 188.523438 152.171875 187.054688 C 152.027344 186.777344 151.503906 186.785156 151.621094 186.460938 C 151.90625 185.226562 150.519531 184.367188 151.035156 183.121094 C 151.078125 183.035156 151.0625 182.792969 150.789062 182.832031 C 150.222656 182.921875 150.132812 182.859375 150.085938 182.355469 C 148.917969 179.191406 147.472656 175.878906 146.582031 172.507812 C 146.332031 172.34375 146.246094 172.132812 146.394531 171.859375 C 145.679688 170.871094 145.6875 169.910156 145.597656 168.78125 C 145.4375 167.964844 145.101562 167.195312 145.425781 166.40625 C 145.429688 166.285156 145.660156 166.25 145.484375 166.035156 C 144.574219 165.257812 145.734375 162.628906 146.582031 164.160156 C 146.703125 165.113281 148.054688 165.320312 147.933594 166.480469 C 149.492188 167.824219 150.277344 170.285156 151.34375 172.136719 C 151.246094 173.152344 152.382812 173.511719 152.445312 174.554688 C 152.402344 175.472656 153.390625 175.660156 153.585938 176.34375 C 153.632812 177.402344 154.03125 178.648438 154.652344 179.40625 C 155.128906 177.707031 153.789062 176.203125 154.027344 174.484375 C 154.414062 173.140625 153.597656 171.878906 153.671875 170.605469 C 153.617188 170.277344 153.292969 170.011719 153.46875 169.636719 C 152.964844 165.714844 152.289062 161.886719 152.511719 157.914062 C 152.726562 155.902344 151.703125 153.546875 152.949219 151.710938 C 152.71875 150.894531 152.300781 150.082031 152.835938 149.230469 C 152.328125 148.804688 154.121094 145.957031 154.582031 145.976562 C 154.949219 146.160156 156.972656 149.332031 156.628906 149.726562 C 156.640625 149.890625 156.648438 150.0625 156.65625 150.222656 C 157.089844 150.582031 157.601562 154.515625 157.542969 154.820312 C 157.640625 154.980469 157.535156 155.121094 157.460938 155.261719 C 157.574219 155.398438 157.714844 155.53125 157.65625 155.734375 C 158.007812 156.050781 157.984375 156.433594 157.890625 156.84375 C 157.976562 157.007812 158.074219 157.175781 157.808594 157.277344 C 157.808594 157.378906 157.800781 157.476562 157.800781 157.578125 C 158.140625 157.933594 158.21875 158.339844 157.992188 158.78125 C 158.273438 158.859375 158.230469 159.027344 158.121094 159.21875 C 158.1875 159.324219 158.328125 159.414062 158.171875 159.554688 C 158.574219 160.144531 158.660156 160.785156 158.464844 161.464844 C 159.042969 162.710938 158.882812 164.183594 159.1875 165.527344 C 159.375 165.785156 159.199219 166.117188 159.324219 166.402344 C 159.484375 166.566406 159.4375 166.714844 159.289062 166.859375 C 159.273438 166.945312 159.261719 167.03125 159.242188 167.121094 C 159.691406 167.539062 159.507812 168.207031 159.839844 168.671875 C 159.8125 168.753906 159.53125 168.960938 159.542969 169.160156 C 159.652344 169.277344 159.863281 169.351562 159.695312 169.570312 C 159.695312 169.625 159.695312 169.679688 159.695312 169.734375 C 160.746094 169.671875 159.800781 168.257812 160.730469 167.9375 C 160.421875 167.054688 161.273438 166.308594 161.039062 165.425781 C 161.367188 165.148438 161.496094 164.6875 161.605469 164.273438 C 161.96875 163.300781 161.65625 162.265625 162.023438 161.25 C 162.65625 160.292969 162.652344 159.097656 162.601562 157.984375 C 162.691406 157.863281 162.773438 157.742188 162.867188 157.621094 C 162.925781 156.914062 163.40625 156.359375 163.820312 155.824219 C 164.175781 155.425781 164.78125 152.007812 165.386719 153.464844 C 165.546875 154.371094 166.730469 153.179688 166.5625 153.941406 C 166.8125 154.214844 167.148438 154.132812 167.445312 154.152344 C 167.753906 154.171875 167.875 154.289062 167.710938 154.535156 C 167.355469 155.070312 167.742188 155.453125 167.980469 155.832031 C 169.292969 159.371094 166.785156 163.265625 167.015625 166.765625 C 166.671875 167.746094 165.910156 168.726562 166.089844 169.839844 C 165.757812 172.363281 165.046875 174.84375 164.457031 177.261719 C 163.984375 177.820312 164.332031 178.398438 164.335938 178.988281 C 163.96875 179.699219 163.367188 180.367188 163.859375 181.273438 C 163.933594 181.414062 163.859375 181.773438 163.734375 181.859375 C 162.863281 182.453125 163.742188 183.574219 163.015625 184.203125 C 162.9375 184.265625 163.078125 184.332031 163.132812 184.355469 C 163.671875 184.570312 163.4375 184.957031 163.332031 185.289062 C 163.023438 186.191406 163.867188 187.160156 162.917969 187.921875 C 162.652344 188.113281 162.785156 191.59375 163.695312 192.355469 C 164.082031 192.617188 163.5 193.128906 163.621094 193.453125 C 164.007812 194.207031 163.921875 195.09375 164.3125 195.839844 C 164.519531 195.972656 164.804688 196.046875 164.683594 196.394531 C 164.730469 196.574219 164.777344 196.742188 164.820312 196.917969 C 165.214844 198.429688 165.191406 200.484375 166.113281 202.050781 C 166.515625 202.6875 166.90625 203.46875 166.375 204.289062 C 167.203125 204.628906 167.539062 205.601562 167.140625 206.523438 C 167.699219 206.898438 167.515625 207.527344 167.816406 208.039062 C 167.921875 208.167969 168.394531 208.257812 168.121094 208.628906 C 168.371094 208.90625 167.984375 209.273438 168.261719 209.542969 C 168.773438 209.625 168.855469 209.980469 168.824219 210.421875 C 168.984375 211.75 169.628906 213.332031 170.207031 214.53125 C 170.703125 214.847656 170.800781 215.289062 170.839844 215.820312 C 171.140625 218.035156 173.1875 219.578125 173.296875 221.835938 C 173.996094 222.097656 174.570312 222.917969 174.539062 223.632812 C 175.226562 224.871094 176.414062 226.402344 176.253906 227.765625 C 177.019531 227.738281 177.011719 228.441406 177.265625 228.816406 C 177.582031 229.285156 178.136719 229.65625 178.140625 230.265625 C 178.09375 231.160156 179.347656 231.636719 179.410156 232.363281 C 179.738281 233.566406 180.785156 234.269531 181.132812 235.375 C 182.160156 235.878906 182.414062 237.449219 182.875 238.230469 C 184.816406 239.414062 185.324219 241.9375 186.9375 243.496094 C 188.042969 244.695312 189.585938 245.984375 189.964844 247.652344 C 189.964844 247.816406 190.066406 247.898438 190.222656 247.851562 C 190.578125 247.75 190.613281 247.980469 190.808594 248.210938 C 193.453125 251.839844 197.050781 254.265625 199.910156 257.800781 C 201.265625 258.875 201.546875 260.820312 202.730469 261.910156 C 203.910156 262.117188 204.042969 263.433594 205.011719 263.882812 C 205.65625 264.09375 205.910156 264.777344 206.167969 265.300781 C 206.859375 265.542969 207.25 266.125 207.738281 266.601562 C 207.957031 266.609375 208.007812 266.71875 207.925781 266.90625 C 207.996094 266.972656 208.070312 267.039062 208.132812 267.105469 C 208.539062 266.933594 208.46875 267.464844 208.761719 267.578125 C 209.015625 267.804688 209.632812 267.554688 209.5625 268.195312 C 209.726562 268.578125 210.144531 268.660156 210.433594 268.886719 C 210.492188 268.789062 210.550781 268.699219 210.613281 268.601562 C 210.183594 268 210.332031 267.097656 209.566406 266.667969 C 209.492188 266.628906 209.433594 266.476562 209.445312 266.386719 C 209.609375 265.222656 208.339844 264.773438 208.132812 263.878906 C 208.515625 262.628906 206.644531 262.273438 206.957031 260.957031 C 206.960938 260.3125 206.113281 259.953125 205.9375 259.339844 C 205.542969 258.773438 205.507812 258.019531 205.050781 257.539062 C 203.953125 256.691406 204.046875 255.210938 203.320312 254.273438 C 201.832031 253.179688 201.542969 251.378906 200.59375 249.921875 C 200.269531 248.832031 198.75 248.070312 198.457031 247.023438 C 198.667969 246.59375 198.40625 246.5625 198.136719 246.453125 C 198.003906 246.390625 197.808594 246.238281 197.808594 246.132812 C 197.8125 245.105469 196.953125 244.5 196.5625 243.671875 C 196.273438 243.066406 195.855469 242.542969 195.816406 241.835938 C 195.804688 241.660156 195.664062 241.488281 195.496094 241.570312 C 194.390625 241.761719 194.976562 239.902344 194.113281 239.441406 C 191.6875 237.035156 190.960938 233.40625 188.824219 230.886719 C 187.460938 228.339844 185.414062 226.011719 184.476562 223.15625 C 184.390625 223.085938 184.390625 223.003906 184.460938 222.925781 C 183.839844 222.429688 183.5 221.710938 183.488281 220.933594 C 183.316406 220.683594 182.90625 220.589844 183.011719 220.164062 C 182.992188 220.128906 182.984375 220.085938 182.992188 220.046875 C 182.773438 219.1875 182.203125 218.417969 182.175781 217.476562 C 182.015625 217.011719 182.382812 216.507812 182.066406 216.054688 C 181.640625 215.773438 181.964844 215.507812 182.121094 215.269531 C 181.578125 214.984375 181.621094 214.488281 181.835938 214.046875 C 181.984375 213.539062 182.382812 214.019531 182.621094 213.859375 L 182.621094 213.828125 C 182.179688 213.371094 182.796875 213.269531 182.941406 213.0625 C 183.089844 212.839844 183.316406 213.109375 183.515625 213.246094 C 183.863281 213.480469 183.714844 214.050781 184.191406 214.167969 C 184.714844 214.320312 184.851562 214.863281 184.902344 215.324219 C 184.890625 215.226562 184.878906 215.121094 184.867188 215.023438 C 185.421875 215.375 185.78125 215.847656 186.039062 216.425781 C 186.390625 216.792969 186.980469 216.988281 186.941406 217.644531 C 187.164062 218.015625 187.578125 218.265625 187.640625 218.738281 C 188.113281 218.808594 187.914062 219.144531 187.898438 219.398438 C 187.949219 219.480469 188.003906 219.570312 188.0625 219.648438 C 188.617188 219.808594 188.472656 220.402344 188.804688 220.742188 C 189.542969 220.847656 189.003906 221.683594 189.601562 222.058594 C 190.019531 222.167969 189.90625 222.707031 190.269531 222.863281 C 190.191406 222.921875 190.101562 222.976562 190.027344 223.03125 C 190.089844 223.117188 190.15625 223.207031 190.21875 223.289062 C 190.675781 223.359375 190.421875 223.71875 190.472656 223.945312 C 190.59375 224.082031 190.710938 224.210938 190.832031 224.347656 C 190.980469 224.5625 191.402344 224.613281 191.226562 225.015625 C 191.144531 225.300781 191.546875 225.40625 191.492188 225.683594 C 192.054688 226.15625 191.746094 227.152344 192.644531 227.402344 C 193.171875 227.578125 193.070312 228.046875 192.980469 228.523438 C 193.175781 228.671875 193.421875 228.800781 193.347656 229.121094 C 193.570312 229.320312 193.789062 229.523438 194.011719 229.726562 C 192.5625 221.6875 189.066406 214.246094 188.089844 206.117188 C 187.667969 204.46875 187.007812 202.734375 187.101562 200.921875 C 187.101562 199.808594 188.457031 200.304688 188.578125 201.121094 C 188.445312 202.953125 190.40625 203.695312 190.613281 205.320312 L 190.609375 205.328125 C 190.703125 205.503906 190.839844 205.671875 190.691406 205.882812 C 192.746094 211.773438 194.921875 217.757812 196.125 223.90625 C 196.871094 224.308594 196.742188 225.011719 196.738281 225.679688 C 196.808594 225.753906 196.878906 225.824219 196.949219 225.898438 C 197.148438 225.863281 197.347656 225.835938 197.550781 225.804688 C 197.757812 225.207031 197.136719 224.496094 197.644531 224.09375 C 197.632812 224.046875 197.628906 223.996094 197.640625 223.941406 C 197.453125 223.621094 197.484375 223.359375 197.867188 223.207031 C 197.863281 223.160156 197.855469 223.121094 197.84375 223.074219 C 196.734375 222.539062 197.4375 220.738281 197.355469 219.640625 C 196.476562 218.261719 197.277344 216.414062 196.910156 214.964844 C 196.640625 214.6875 196.671875 214.304688 196.960938 214 C 196.820312 213.648438 196.601562 213.285156 197.0625 212.988281 C 197.078125 212.515625 196.519531 212.1875 196.875 211.746094 C 196.871094 211.035156 196.445312 210.402344 196.8125 209.597656 C 196.992188 209.199219 197.242188 208.453125 196.820312 207.886719 C 196.28125 207.492188 196.609375 207.007812 196.667969 206.554688 C 196.730469 206.476562 196.792969 206.398438 196.855469 206.320312 C 196.613281 204.804688 197.519531 203.136719 197.875 201.625 C 198.269531 201.441406 198.027344 199.195312 198.121094 198.304688 C 198.507812 198.605469 200.0625 201.570312 200.453125 202.847656 C 200.410156 202.890625 200.371094 202.9375 200.339844 202.980469 L 200.371094 202.972656 C 201.246094 203.898438 201.003906 205.144531 201.394531 206.25 C 201.832031 207.179688 201.765625 208.242188 202.15625 209.1875 C 202.214844 209.332031 202.242188 209.621094 202 209.75 C 201.695312 210.636719 202.589844 212.410156 202.179688 213.472656 C 201.914062 213.910156 202.757812 213.652344 202.550781 213.996094 C 202.082031 214.789062 202.886719 215.449219 202.699219 216.28125 C 202.394531 217.632812 203.625 219.378906 202.957031 220.769531 C 202.964844 221 202.773438 221.125 202.671875 221.304688 C 202.75 221.683594 203.222656 221.589844 203.390625 221.941406 C 202.175781 223.191406 204.28125 228.996094 204.152344 231.179688 C 204.488281 232.753906 204.589844 234.59375 204.683594 236.125 C 205.269531 236.660156 205.011719 237.398438 205.3125 238.011719 C 205.6875 238.75 205.097656 239.800781 205.917969 240.496094 C 205.957031 240.53125 205.917969 240.652344 205.9375 240.730469 C 206.058594 242.480469 206.710938 243.886719 207.117188 245.609375 C 207.105469 246.226562 207.59375 246.847656 207.320312 247.546875 C 207.3125 247.574219 207.414062 247.671875 207.484375 247.703125 C 208.421875 248.570312 207.886719 250.105469 208.820312 251.050781 C 208.917969 251.15625 209.003906 251.425781 208.945312 251.492188 C 208.382812 252.304688 210 254.296875 210.246094 255.355469 C 210.351562 255.558594 210.679688 255.585938 210.613281 255.796875 C 210.25 256.964844 211.46875 257.410156 211.742188 258.3125 C 214.679688 263.441406 218.359375 268.675781 221.453125 273.652344 C 223.609375 276.640625 226.148438 279.421875 227.898438 282.648438 C 230.144531 284.398438 230.636719 287.621094 233.019531 289.191406 C 244.078125 299.117188 255.808594 308.5 267.667969 317.535156 C 266.269531 314.550781 262.859375 313.335938 260.96875 310.652344 C 259.550781 309.429688 258.613281 307.675781 256.980469 306.59375 C 255.910156 305.378906 255.488281 303.691406 254.050781 302.796875 C 254.171875 302.148438 253.378906 302.148438 253.246094 301.640625 C 252.769531 300.171875 251.191406 299.542969 250.367188 298.304688 C 250.523438 298.195312 250.375 298.019531 250.246094 298.183594 C 249.488281 296.734375 247.964844 295.648438 247.078125 294.460938 C 247.496094 293.378906 246.507812 292.855469 246.019531 292.492188 C 244.039062 290.855469 242.699219 288.671875 241.074219 286.753906 C 238.519531 283.816406 236.402344 280.355469 233.996094 277.253906 C 233.527344 276.472656 232.402344 276.109375 232.488281 274.945312 C 230.171875 272.679688 228.164062 269.742188 226.296875 266.933594 C 225.632812 266.699219 225.316406 265.855469 225.320312 265.515625 C 225.238281 264.683594 224.523438 264.230469 224.289062 263.484375 C 223.914062 263.300781 224.007812 262.972656 224.035156 262.664062 C 223.980469 262.59375 223.925781 262.527344 223.871094 262.457031 C 223.203125 262.039062 223.730469 260.855469 222.925781 260.304688 C 222.238281 259.828125 223.074219 258.746094 222.34375 258.46875 C 221.804688 258.195312 221.785156 257.851562 222.289062 257.578125 C 222.488281 257.464844 222.222656 257.191406 222.527344 257.125 C 222.664062 257.324219 228.152344 262.988281 230.003906 264.523438 C 229.953125 264.511719 229.894531 264.496094 229.84375 264.484375 C 230.738281 264.757812 230.644531 266.21875 231.773438 266.382812 C 231.796875 266.382812 231.847656 266.546875 231.820312 266.578125 C 231.558594 266.882812 231.957031 266.929688 231.988281 267.039062 C 232.140625 267.75 233.039062 267.863281 233.152344 268.535156 C 233.273438 269.28125 234.402344 269.460938 234.167969 270.394531 C 234.8125 270.585938 235.199219 271.226562 235.476562 271.789062 C 236.011719 272.929688 237.488281 273.363281 237.53125 274.769531 C 237.679688 274.855469 237.828125 274.941406 237.976562 275.027344 C 238.132812 274.964844 238.203125 275.082031 238.289062 275.179688 C 238.875 275.386719 238.128906 276.054688 238.820312 276.179688 C 239.429688 276.085938 239.902344 278.34375 240.164062 276.878906 C 235.675781 269.503906 232.523438 261.378906 229.707031 253.210938 C 229.21875 253.027344 229.324219 252.589844 229.28125 252.214844 C 229.339844 252.289062 229.398438 252.359375 229.449219 252.433594 C 229.234375 252.15625 228.835938 246.890625 228.554688 246.699219 C 228.445312 246.625 228.351562 246.484375 228.523438 246.386719 C 229.003906 246.25 229.035156 247.066406 229.3125 247.324219 C 230.597656 249.175781 231.300781 250.84375 231.441406 251.3125 C 231.265625 252.238281 233.578125 253.84375 233.277344 254.601562 C 233.023438 255.941406 234.167969 256.695312 234.742188 257.800781 C 235.203125 258.644531 235.183594 259.730469 236.03125 260.378906 C 236.160156 260.476562 236.171875 260.621094 236.058594 260.71875 C 235.6875 261.023438 235.941406 261.199219 236.171875 261.402344 C 237.070312 261.90625 237.167969 262.886719 237.480469 263.742188 C 238.542969 264.886719 238.644531 266.570312 239.703125 267.707031 C 239.789062 267.804688 239.914062 267.953125 239.894531 268.042969 C 239.714844 269.289062 241.160156 269.597656 241.367188 270.710938 C 242.042969 273.035156 244 274.605469 244.652344 276.902344 C 244.660156 277.023438 244.695312 277.589844 245.011719 277.660156 C 245.980469 277.886719 245.835938 278.894531 246.320312 279.464844 C 247.183594 280.015625 247.570312 282.550781 248.609375 282.085938 C 248.742188 281.664062 248.816406 281.265625 248.382812 280.949219 C 248.273438 280.867188 248.203125 280.738281 248.269531 280.601562 C 248.671875 279.683594 247.65625 279.011719 247.753906 278.152344 C 248.039062 277.164062 247.4375 276.308594 247.382812 275.371094 C 247.367188 275.121094 246.820312 274.964844 247.21875 274.605469 C 247.230469 274.019531 246.578125 273.605469 246.789062 272.96875 C 246.703125 272.679688 246.800781 272.414062 246.894531 272.148438 C 246.871094 271.820312 246.535156 271.574219 246.640625 271.210938 C 246.847656 270.617188 246.03125 270.5 246.066406 270 C 246.101562 268.542969 245.542969 267.074219 245.515625 266.097656 C 245.429688 265.214844 245.308594 264.34375 245.285156 263.464844 C 245.269531 263.015625 245.617188 262.527344 244.925781 262.277344 C 244.59375 262.003906 245.09375 261.289062 245.082031 260.882812 C 244.472656 260.472656 244.871094 259.847656 244.738281 259.292969 C 244.527344 258.621094 245.320312 258.160156 245.097656 257.488281 C 244.960938 256.3125 244.753906 255.628906 245.214844 254.566406 C 245.5625 254.457031 249.925781 262.039062 249.878906 262.226562 C 249.742188 262.929688 250.339844 263.484375 250.144531 264.15625 C 250.078125 264.375 250.140625 264.542969 250.359375 264.6875 C 251.671875 265.335938 249.46875 266.171875 250.527344 266.6875 C 250.753906 266.773438 250.640625 266.917969 250.695312 267.019531 C 250.917969 267.476562 250.746094 268.167969 251.160156 268.410156 C 251.847656 268.824219 251.816406 269.21875 251.433594 269.753906 C 251.316406 269.921875 251.371094 270.121094 251.453125 270.199219 C 252.148438 270.8125 251.453125 272.367188 252.109375 272.90625 C 252.847656 273.34375 252.679688 273.964844 252.765625 274.570312 C 252.738281 275.875 253.519531 277.175781 253.320312 278.414062 C 253.265625 278.570312 253.144531 278.6875 253.296875 278.816406 C 254.3125 280.765625 254.261719 283.792969 254.675781 286.007812 C 254.777344 286.398438 255.257812 286.582031 255.148438 286.9375 C 254.894531 287.753906 255.449219 288.359375 255.574219 289.070312 C 256.121094 290.132812 255.652344 291.429688 256.539062 292.367188 C 256.792969 294.179688 257.210938 296.089844 258.1875 297.585938 C 257.996094 298.832031 259.46875 299.308594 259.777344 300.339844 C 261.339844 304.117188 265.28125 306.613281 267.125 310.085938 C 267.625 310.425781 268.359375 310.699219 268.535156 311.167969 C 269.195312 312.445312 270.570312 313.167969 271.140625 314.40625 C 271.691406 314.265625 271.730469 314.78125 271.992188 315.027344 C 272.371094 315.382812 272.121094 316.195312 273.027344 316.253906 C 274.5625 317.617188 276.464844 319.636719 277.988281 321.117188 C 280.121094 322.921875 281.78125 325.121094 283.941406 326.839844 C 284.835938 326.925781 284.472656 328.058594 285.136719 328.339844 C 286.859375 329.199219 287.511719 331.355469 289.226562 332.300781 C 290.003906 332.964844 291.601562 333.074219 291.839844 334.28125 C 292.425781 333.90625 292.730469 334.476562 292.953125 334.753906 C 293.371094 335.25 294.042969 335.132812 294.476562 335.710938 C 298.066406 339.097656 302.582031 341.777344 306.886719 344.144531 C 318.882812 351.871094 332.816406 357.765625 344.765625 364.632812 C 345.007812 365.449219 344.308594 366.242188 343.464844 365.742188 C 340.132812 364.210938 336.550781 363.054688 333.242188 361.546875 C 332.789062 360.796875 331.875 360.710938 331.257812 360.601562 C 328.316406 359.585938 325.484375 358.03125 322.683594 356.722656 C 321.816406 355.730469 320.292969 355.554688 319.25 354.9375 C 316.5625 353.550781 314.125 351.894531 311.230469 350.84375 C 309.070312 349.25 306.632812 348.035156 304.367188 346.695312 C 302.960938 346.457031 302.351562 344.554688 300.886719 345.03125 C 299.890625 343.65625 297.933594 343.402344 296.695312 342.3125 C 296.113281 341.769531 295.128906 341.820312 294.824219 340.9375 C 293.246094 340.4375 291.632812 339.902344 290.46875 338.597656 C 290.132812 338.191406 289.875 337.53125 289.109375 337.855469 C 289.042969 337.878906 288.859375 337.804688 288.835938 337.738281 C 288.589844 336.988281 287.828125 336.902344 287.300781 336.507812 C 282.828125 334.257812 278.683594 331.804688 274.152344 329.894531 C 269.378906 326.980469 263.960938 324.855469 259.101562 322.355469 C 257.171875 322.101562 255.597656 321 253.761719 320.257812 C 250.5 318.660156 246.804688 319.023438 243.300781 318.21875 C 241.660156 318.023438 239.863281 317.902344 238.417969 317.484375 C 237.808594 318.53125 237.1875 317.25 236.648438 317.34375 C 236.261719 318.003906 235.851562 317.640625 235.359375 317.507812 C 234.914062 317.390625 234.34375 317.808594 233.980469 317.1875 C 233.960938 317.160156 233.683594 317.253906 233.550781 317.328125 C 231.8125 317.6875 229.800781 316.773438 227.976562 317.277344 C 227.832031 317.34375 227.550781 317.3125 227.445312 317.207031 C 226.996094 316.785156 226.472656 317 226.023438 317.058594 C 224.960938 317.417969 224.140625 316.335938 223.109375 316.832031 C 222.6875 317.085938 222.070312 317.226562 221.546875 316.820312 C 220.65625 316.6875 219.660156 317.164062 218.761719 316.773438 C 214.742188 316.160156 210.15625 316.875 206.570312 314.625 C 206.210938 314.703125 206.019531 314.265625 205.769531 314.074219 Z M 202.25 303.453125 C 202.253906 303.476562 202.261719 303.5 202.265625 303.523438 C 202.289062 303.527344 202.3125 303.519531 202.335938 303.523438 C 202.339844 303.453125 202.3125 303.441406 202.25 303.453125 Z M 74.011719 48.738281 C 74.011719 48.679688 73.996094 48.65625 73.933594 48.683594 C 73.941406 48.707031 73.941406 48.726562 73.953125 48.746094 C 73.96875 48.742188 73.992188 48.738281 74.011719 48.738281 Z M 221.425781 273.617188 C 221.382812 273.613281 221.339844 273.609375 221.296875 273.605469 C 221.320312 273.691406 221.441406 273.722656 221.425781 273.617188 Z M 221.425781 273.617188 " fill-opacity="1" fill-rule="nonzero"/></g></g></g><g clip-path="url(#ee799bb9fa)"><g clip-path="url(#be46baa891)"><g clip-path="url(#477ea057f4)"><path fill="#5f764f" d="M 75 66.214844 C 75.019531 66.183594 75.027344 66.15625 75.042969 66.128906 C 75.054688 66.144531 75.070312 66.160156 75.085938 66.171875 C 75.085938 66.183594 75.082031 66.195312 75.082031 66.207031 C 75.058594 66.210938 75.03125 66.214844 75 66.214844 Z M 75 66.214844 " fill-opacity="1" fill-rule="nonzero"/></g></g></g></svg>